<svg width="48" height="48" viewBox="0 0 48 48" fill="none" xmlns="http://www.w3.org/2000/svg">
<path d="M45.792 32.7407C45.792 33.8826 45.4903 35.0042 44.9172 35.9926C44.3442 36.9809 43.5201 37.8009 42.5281 38.3699L27.2411 47.1368C26.255 47.7024 25.1375 48 24.0002 48C22.8628 48 21.7453 47.7024 20.7592 47.1368L5.47224 38.3699C4.48019 37.801 3.65602 36.981 3.0829 35.9926C2.50979 35.0043 2.20801 33.8826 2.20799 32.7407V15.2593C2.20797 14.1174 2.50971 12.9958 3.08277 12.0074C3.65582 11.0191 4.47992 10.1991 5.47192 9.63013L20.7588 0.863174C21.745 0.29762 22.8625 0 23.9998 0C25.1372 0 26.2547 0.29762 27.2408 0.863174L42.5277 9.63013C43.5198 10.199 44.344 11.019 44.9171 12.0074C45.4902 12.9957 45.792 14.1174 45.792 15.2593V32.7407Z" fill="#1D86CC"/>
<path d="M22.0685 3.3344L6.97464 12.034C6.40081 12.3646 5.92428 12.8402 5.59307 13.4128C5.26187 13.9855 5.08766 14.6351 5.08789 15.2963L5.09734 32.7146C5.09777 33.3748 5.27211 34.0233 5.60292 34.595C5.93373 35.1668 6.40935 35.6417 6.98211 35.9721L22.0936 44.6892C22.6672 45.0197 23.3179 45.1937 23.9803 45.1937C24.6426 45.1937 25.2934 45.0197 25.867 44.6892L40.961 35.9922C41.5348 35.6616 42.0112 35.1861 42.3424 34.6134C42.6736 34.0407 42.8479 33.3911 42.8476 32.7299L42.8383 15.3116C42.8378 14.6514 42.6633 14.003 42.3325 13.4314C42.0017 12.8597 41.5261 12.3848 40.9534 12.0544L25.842 3.337C25.2684 3.00651 24.6176 2.83252 23.9552 2.83252C23.2929 2.83252 22.6421 3.00651 22.0685 3.337V3.3344Z" fill="white"/>
<path d="M17.0868 38.8024C17.11 38.6889 17.1609 38.5828 17.235 38.4937C21.7502 30.8484 26.2662 23.2035 30.7829 15.5589C30.8456 15.4528 30.9038 15.3437 30.9572 15.2486C30.9175 15.1795 30.8723 15.1937 30.8339 15.1937C28.9042 15.2006 26.9745 15.2129 25.0436 15.2106C24.961 15.2092 24.8801 15.2329 24.8115 15.2788C24.7429 15.3246 24.6901 15.3904 24.6601 15.4671C23.2045 17.8692 21.7469 20.2707 20.2877 22.6715C17.1962 27.7612 14.1045 32.8507 11.0124 37.9402C10.9851 37.9853 10.9564 38.0295 10.932 38.0759C10.8774 38.1811 10.8153 38.1976 10.7043 38.1334C10.2245 37.8506 9.73952 37.577 9.22978 37.2845L22.99 15.2622C22.9604 15.1726 22.8995 15.195 22.8526 15.1934C22.1152 15.1713 21.3775 15.1395 20.6407 15.1331C19.6056 15.1024 18.574 15.2683 17.601 15.6219C16.7149 15.9494 15.9618 16.5595 15.4586 17.3576C12.9445 21.2707 10.4208 25.1777 7.8876 29.0787C7.84792 29.1403 7.80565 29.2007 7.76466 29.2617C7.61958 29.2617 7.641 29.1423 7.62766 29.0589C7.61483 28.9332 7.61184 28.8068 7.61861 28.6807C7.61861 24.366 7.63357 20.0512 7.60527 15.7368C7.58254 15.3651 7.67209 14.995 7.86243 14.6747C8.05277 14.3543 8.33514 14.0983 8.67289 13.9398C11.9978 12.0483 15.3012 10.1178 18.6153 8.20715C20.0945 7.3544 21.5782 6.50975 23.0466 5.63915C23.3228 5.45422 23.6478 5.35547 23.9805 5.35547C24.3131 5.35547 24.6382 5.45422 24.9144 5.63915C27.6144 7.22033 30.3384 8.76482 33.0524 10.3236C35.0994 11.4998 37.1474 12.6739 39.1964 13.846C39.3431 13.9294 39.4858 14.0186 39.6332 14.1008C39.8728 14.2278 40.0709 14.4207 40.2042 14.6565C40.3375 14.8924 40.4003 15.1613 40.3853 15.4317C40.3892 20.1251 40.3892 24.8186 40.3853 29.512C40.3949 29.6275 40.3823 29.7437 40.3482 29.8545C40.1856 30.0113 40.1267 29.8353 40.0675 29.7519C39.8236 29.4094 39.6046 29.0488 39.3779 28.6943C37.5623 25.8583 35.7406 23.0261 33.9128 20.1976C33.2987 19.2416 32.6767 18.2896 32.069 17.3297C31.9272 17.1057 31.9015 17.1025 31.7597 17.343C30.8428 18.8912 29.9264 20.4397 29.0106 21.9885C28.9604 22.0746 28.9387 22.1744 28.9488 22.2735C28.9588 22.3726 29 22.466 29.0665 22.5403C29.8217 23.7561 30.5754 24.9728 31.3277 26.1903L35.1848 32.4163C35.7053 33.2577 36.2266 34.0983 36.7488 34.9382C36.8457 35.0508 36.9003 35.1936 36.903 35.342C36.7986 35.5491 36.5809 35.6072 36.3997 35.7014C36.1024 35.9157 35.7756 36.0859 35.4294 36.2068C35.2427 36.1604 35.1766 35.9922 35.0881 35.8546C33.894 33.9959 32.7151 32.1277 31.5288 30.2645C30.3086 28.3493 29.0942 26.4269 27.8688 24.5136C27.7117 24.2682 27.6866 24.2666 27.5389 24.5136C26.4729 26.3032 25.4216 28.1013 24.3529 29.8889C24.2983 29.9727 24.2714 30.0715 24.2761 30.1713C24.2809 30.2712 24.317 30.367 24.3793 30.4453C25.8188 32.6591 27.225 34.8924 28.6492 37.1173C29.0464 37.7373 29.4465 38.3551 29.8365 38.9796C29.9126 39.101 30.0167 39.2221 29.9478 39.3864C29.5739 39.6766 29.1705 39.9269 28.7442 40.133C27.4139 40.9053 26.083 41.6766 24.7515 42.4468C24.5382 42.5842 24.2896 42.6573 24.0357 42.6573C23.7819 42.6573 23.5334 42.5842 23.3201 42.4468C21.3588 41.3146 19.3939 40.1874 17.4254 39.0653C17.2898 39.0115 17.1723 38.9203 17.0868 38.8024Z" fill="#2D374B"/>
<path d="M40.2898 29.9014C40.2927 29.7855 40.2985 29.67 40.2985 29.5544C40.2985 24.8716 40.3001 20.1889 40.3031 15.5065C40.3198 15.2226 40.253 14.9399 40.1109 14.6933C39.9689 14.4466 39.7578 14.2467 39.5035 14.1181C34.5759 11.2992 29.6518 8.47392 24.7313 5.64223C24.5098 5.49839 24.2513 5.4215 23.987 5.42081C23.7227 5.42011 23.4638 5.49565 23.2415 5.63834C20.509 7.22309 17.7729 8.80374 15.0335 10.3803C12.8355 11.6499 10.6378 12.9199 8.44006 14.1902C8.20533 14.3117 8.01073 14.4983 7.87968 14.7274C7.74863 14.9566 7.68671 15.2187 7.70131 15.4822C7.71259 19.9754 7.71893 24.4687 7.72045 28.962C7.72045 29.062 7.6798 29.1733 7.76731 29.2616C7.24683 30.1263 6.67496 30.9573 6.12683 31.8036C5.85228 32.2273 5.57665 32.6503 5.29992 33.0725C5.25568 33.1401 5.20461 33.2024 5.1171 33.3228C5.1106 33.1813 5.10376 33.103 5.10376 33.0251C5.10376 27.0997 5.10485 21.1742 5.10702 15.2488C5.09252 14.5911 5.25984 13.9422 5.5906 13.3732C5.92135 12.8042 6.40274 12.3371 6.98201 12.0231C8.89282 10.8909 10.829 9.80084 12.7525 8.68872C14.3754 7.75092 15.9928 6.80597 17.6148 5.86654C19.1274 4.99009 20.6247 4.08735 22.1631 3.25862C22.7523 2.93123 23.4187 2.76773 24.0929 2.7852C24.767 2.80268 25.4241 3.00048 25.9954 3.35795C27.2316 4.05781 28.4625 4.77065 29.6951 5.47766C30.8544 6.14354 32.0137 6.80987 33.1729 7.47662C34.2412 8.09035 35.3098 8.70342 36.3787 9.31585C37.4385 9.92331 38.4984 10.5304 39.5585 11.1373C40.0243 11.4044 40.4898 11.6719 40.9527 11.9439C41.4637 12.2324 41.9032 12.6321 42.2382 13.1133C42.5733 13.5944 42.7955 14.1447 42.8883 14.7232C42.9102 14.8903 42.9169 15.059 42.9084 15.2273C42.9084 21.058 42.9092 26.8888 42.9107 32.7197C42.9137 33.2737 42.7939 33.8215 42.5599 34.3239C42.3258 34.8263 41.9833 35.2708 41.5568 35.6256C41.3135 35.8108 41.0518 35.9708 40.7761 36.1031C39.1929 37.0248 37.6076 37.9427 36.0199 38.8568C34.3329 39.8306 32.6451 40.8028 30.9566 41.7734C29.3342 42.7113 27.7136 43.6527 26.0947 44.5975C25.6916 44.8681 25.238 45.0548 24.7609 45.1464C23.9685 45.3008 23.1473 45.1965 22.4188 44.8491C21.6114 44.417 20.8249 43.9483 20.0289 43.4932C18.9599 42.8812 17.8915 42.268 16.8237 41.6536C16.522 41.4805 16.2201 41.3083 15.918 41.1372C15.807 41.0742 15.7313 41.0102 15.8178 40.8658C16.2173 40.1981 16.6106 39.5264 17.0081 38.8574C17.0221 38.8331 17.0578 38.8217 17.0835 38.8038C17.4539 38.9765 17.8125 39.1733 18.157 39.393C19.9013 40.3885 21.6428 41.3888 23.3817 42.394C23.5826 42.5208 23.8159 42.5869 24.0536 42.5844C24.2912 42.5819 24.5231 42.5108 24.7212 42.3798C26.3728 41.4128 28.0328 40.4597 29.6892 39.5018C29.7712 39.4544 29.8551 39.4112 29.9384 39.3664C30.0946 39.1673 30.3032 39.0155 30.5409 38.9279C32.0373 38.0722 33.5225 37.1996 35.0186 36.3462C35.1435 36.2751 35.2561 36.1654 35.4187 36.1839L36.8845 35.3367C36.974 35.1497 37.1649 35.0893 37.325 34.9971C38.0624 34.5722 38.7931 34.1356 39.537 33.7244C39.7523 33.6113 39.9303 33.4386 40.0497 33.2271C40.1691 33.0155 40.2248 32.7741 40.21 32.5317C40.2175 31.7871 40.21 31.0421 40.2136 30.2971C40.1877 30.1603 40.215 30.0189 40.2898 29.9014Z" fill="#96BEDC"/>
<path d="M40.2914 29.901C40.2953 30.8255 40.3158 31.7513 40.295 32.6745C40.3007 32.8908 40.2463 33.1045 40.1379 33.2918C40.0294 33.4792 39.8711 33.6329 39.6805 33.736C38.7475 34.2632 37.8315 34.8202 36.89 35.3331C36.5156 34.6514 36.0833 34.0022 35.6741 33.34C33.5488 29.9025 31.4211 26.4671 29.2911 23.0336C29.1636 22.8278 29.0467 22.6142 28.9042 22.4197C28.8579 22.3639 28.8325 22.2937 28.8325 22.2212C28.8325 22.1487 28.8579 22.0785 28.9042 22.0227C29.4127 21.1742 29.9127 20.3208 30.416 19.4687L31.8128 17.1042C31.8376 17.048 31.8811 17.0021 31.9361 16.9744C32.179 17.348 32.424 17.7249 32.6686 18.1021C34.1381 20.3852 35.6073 22.6683 37.0761 24.9514C38.0722 26.5004 39.0682 28.0496 40.064 29.5988C40.1187 29.7138 40.196 29.8166 40.2914 29.901Z" fill="#28A0F0"/>
<path d="M35.4243 36.1803C34.8176 36.5777 34.1742 36.9156 33.549 37.284C32.4153 37.9492 31.2745 38.602 30.1369 39.2596C30.0718 39.2963 30.0068 39.3307 29.944 39.3661C29.9296 39.2611 29.8843 39.1627 29.8139 39.0833C28.8009 37.4947 27.7878 35.9064 26.7746 34.3184C25.9421 33.0143 25.1071 31.7115 24.2697 30.4101C24.2131 30.3426 24.1802 30.2583 24.1762 30.1703C24.1722 30.0824 24.1973 29.9955 24.2477 29.9231C25.3669 28.0421 26.4815 26.1583 27.5914 24.2717C27.6178 24.2282 27.6389 24.1775 27.7043 24.1636C27.7954 24.184 27.8175 24.2749 27.8608 24.3428C29.8776 27.5129 31.8945 30.6833 33.9114 33.8539C34.3404 34.5287 34.7675 35.2052 35.1992 35.8788C35.2542 35.9928 35.3303 36.0954 35.4236 36.181L35.4243 36.1803Z" fill="#28A0F0"/>
</svg>
