<svg width="183" height="183" viewBox="0 0 183 183" fill="none" xmlns="http://www.w3.org/2000/svg">
<g filter="url(#filter0_d_774_20639)">
<rect x="8" y="4" width="167" height="167" rx="12" fill="#2E2F30"/>
<path d="M29.0635 149.681L153.937 26.5039" stroke="#171818"/>
<rect x="71.0449" y="77.1006" width="40.4258" height="23.1676" rx="11.5838" fill="#2E2F30"/>
<path d="M78.8317 94.6846V83.0482H83.4226C84.3052 83.0482 85.0571 83.2168 85.6783 83.5539C86.2995 83.8872 86.773 84.3512 87.0987 84.9459C87.4283 85.5368 87.593 86.2187 87.593 86.9914C87.593 87.7641 87.4264 88.4459 87.093 89.0368C86.7597 89.6278 86.2768 90.088 85.6442 90.4175C85.0154 90.7471 84.254 90.9118 83.3601 90.9118H80.4339V88.9403H82.9624C83.4358 88.9403 83.826 88.8588 84.1328 88.6959C84.4434 88.5293 84.6745 88.3001 84.826 88.0084C84.9813 87.713 85.0589 87.374 85.0589 86.9914C85.0589 86.605 84.9813 86.2679 84.826 85.98C84.6745 85.6884 84.4434 85.463 84.1328 85.3039C83.8222 85.141 83.4283 85.0596 82.951 85.0596H81.2919V94.6846H78.8317ZM91.6513 83.0482V94.6846H89.1911V83.0482H91.6513ZM103.942 87.1221H101.454C101.408 86.8001 101.316 86.5141 101.175 86.2641C101.035 86.0103 100.855 85.7944 100.636 85.6164C100.416 85.4384 100.162 85.302 99.8743 85.2073C99.5902 85.1126 99.2815 85.0653 98.9482 85.0653C98.3459 85.0653 97.8213 85.2149 97.3743 85.5141C96.9273 85.8096 96.5807 86.2414 96.3345 86.8096C96.0883 87.374 95.9652 88.0596 95.9652 88.8664C95.9652 89.6959 96.0883 90.3929 96.3345 90.9573C96.5845 91.5217 96.933 91.9478 97.38 92.2357C97.8269 92.5236 98.344 92.6675 98.9311 92.6675C99.2607 92.6675 99.5656 92.624 99.8459 92.5368C100.13 92.4497 100.382 92.3228 100.602 92.1562C100.821 91.9857 101.003 91.7793 101.147 91.5368C101.295 91.2944 101.397 91.0179 101.454 90.7073L103.942 90.7187C103.878 91.2528 103.717 91.7679 103.46 92.2641C103.206 92.7565 102.863 93.1978 102.431 93.588C102.003 93.9743 101.492 94.2812 100.897 94.5084C100.306 94.7319 99.6375 94.8437 98.8913 94.8437C97.8535 94.8437 96.9254 94.6088 96.1072 94.1391C95.2929 93.6694 94.6489 92.9895 94.1754 92.0993C93.7057 91.2092 93.4709 90.1315 93.4709 88.8664C93.4709 87.5974 93.7095 86.5179 94.1868 85.6278C94.6641 84.7376 95.3118 84.0596 96.13 83.5937C96.9482 83.124 97.8686 82.8891 98.8913 82.8891C99.5656 82.8891 100.191 82.9838 100.766 83.1732C101.346 83.3626 101.859 83.6391 102.306 84.0028C102.753 84.3626 103.117 84.8039 103.397 85.3266C103.681 85.8493 103.863 86.4478 103.942 87.1221Z" fill="#454647"/>
</g>
<defs>
<filter id="filter0_d_774_20639" x="0" y="0" width="183" height="183" filterUnits="userSpaceOnUse" color-interpolation-filters="sRGB">
<feFlood flood-opacity="0" result="BackgroundImageFix"/>
<feColorMatrix in="SourceAlpha" type="matrix" values="0 0 0 0 0 0 0 0 0 0 0 0 0 0 0 0 0 0 127 0" result="hardAlpha"/>
<feOffset dy="4"/>
<feGaussianBlur stdDeviation="4"/>
<feComposite in2="hardAlpha" operator="out"/>
<feColorMatrix type="matrix" values="0 0 0 0 0 0 0 0 0 0 0 0 0 0 0 0 0 0 0.15 0"/>
<feBlend mode="normal" in2="BackgroundImageFix" result="effect1_dropShadow_774_20639"/>
<feBlend mode="normal" in="SourceGraphic" in2="effect1_dropShadow_774_20639" result="shape"/>
</filter>
</defs>
</svg>
