<svg width="32" height="32" viewBox="0 0 32 32" fill="none" xmlns="http://www.w3.org/2000/svg">
<path d="M16 32C24.8366 32 32 24.8366 32 16C32 7.16344 24.8366 0 16 0C7.16344 0 0 7.16344 0 16C0 24.8366 7.16344 32 16 32Z" fill="#2563EB"/>
<path fill-rule="evenodd" clip-rule="evenodd" d="M15.6395 12.9132C15.656 12.9057 15.6699 12.8936 15.6797 12.8784C15.6894 12.8631 15.6946 12.8454 15.6945 12.8273V4.89468C15.6945 4.79799 15.5671 4.76308 15.5188 4.84768L9.35049 15.5776C9.34027 15.5949 9.33586 15.615 9.3379 15.635C9.33994 15.655 9.34833 15.6738 9.36183 15.6887C9.37532 15.7036 9.39323 15.7137 9.41291 15.7176C9.43259 15.7216 9.45301 15.7191 9.47117 15.7105L15.6395 12.9132ZM15.6945 20.7774C15.6948 20.7944 15.6905 20.8112 15.682 20.826C15.6734 20.8407 15.6611 20.8529 15.6462 20.8612C15.6313 20.8695 15.6145 20.8735 15.5975 20.873C15.5805 20.8724 15.564 20.8672 15.5497 20.858L9.35183 16.9729C9.33706 16.9641 9.32499 16.9514 9.31692 16.9362C9.30885 16.9211 9.30509 16.9039 9.30606 16.8868C9.30703 16.8696 9.31268 16.853 9.32241 16.8388C9.33213 16.8247 9.34556 16.8134 9.36122 16.8064L15.5604 13.9016C15.5748 13.8948 15.5907 13.8917 15.6066 13.8927C15.6224 13.8938 15.6378 13.8988 15.6512 13.9074C15.6646 13.916 15.6756 13.9279 15.6832 13.9419C15.6908 13.9559 15.6947 13.9716 15.6945 13.9876V20.7774ZM15.6409 27.5564C15.6409 27.6504 15.5202 27.6867 15.4665 27.6101L9.08364 18.1291C9.02598 18.0419 9.12655 17.9398 9.21371 17.9948L15.5966 22.1203C15.6101 22.1287 15.6212 22.1404 15.6289 22.1542C15.6366 22.1681 15.6408 22.1837 15.6409 22.1995V27.5564ZM16.1692 12.9132C16.1527 12.9057 16.1388 12.8936 16.129 12.8784C16.1193 12.8631 16.1141 12.8454 16.1142 12.8273V4.89468C16.1142 4.79799 16.2416 4.76308 16.2912 4.84768L22.4582 15.5776C22.4684 15.5949 22.4728 15.615 22.4708 15.635C22.4688 15.655 22.4604 15.6738 22.4469 15.6887C22.4334 15.7036 22.4155 15.7137 22.3958 15.7176C22.3761 15.7216 22.3557 15.7191 22.3375 15.7105L16.1692 12.9132ZM16.1142 20.7774C16.1142 20.8512 16.1947 20.8969 16.259 20.858L22.4569 16.9729C22.4716 16.9641 22.4837 16.9514 22.4918 16.9362C22.4999 16.9211 22.5036 16.9039 22.5026 16.8868C22.5017 16.8696 22.496 16.853 22.4863 16.8388C22.4766 16.8247 22.4631 16.8134 22.4475 16.8064L16.2483 13.9016C16.2339 13.8948 16.218 13.8917 16.2021 13.8927C16.1863 13.8938 16.1709 13.8988 16.1575 13.9074C16.1441 13.916 16.1331 13.9279 16.1255 13.9419C16.1179 13.9559 16.114 13.9716 16.1142 13.9876V20.7774ZM16.1142 27.5618C16.1142 27.6558 16.2349 27.6921 16.2872 27.6155L22.7639 18.1291C22.8216 18.0432 22.721 17.9398 22.6339 17.9948L16.1571 22.1216C16.1437 22.1303 16.1327 22.1423 16.1252 22.1564C16.1177 22.1705 16.1139 22.1862 16.1142 22.2022V27.5618Z" fill="white"/>
</svg>
