<svg width="32" height="32" viewBox="0 0 32 32" fill="none" xmlns="http://www.w3.org/2000/svg">
<g clip-path="url(#clip0_4600_15611)">
<rect width="32" height="32" rx="16" fill="#8247E5"/>
<path d="M21.6021 11.8442C21.3912 11.7248 21.1537 11.6621 20.9121 11.6621C20.6705 11.6621 20.4329 11.7248 20.2221 11.8442L17.0558 13.7047L14.9045 14.9181L11.7384 16.7786C11.5275 16.8979 11.2899 16.9605 11.0484 16.9605C10.8068 16.9605 10.5692 16.8979 10.3583 16.7786L7.84153 15.3225C7.63676 15.2036 7.46572 15.0331 7.34493 14.8277C7.22414 14.6222 7.15767 14.3887 7.15195 14.1496V11.2779C7.14911 11.0371 7.21201 10.8001 7.33369 10.5931C7.45537 10.3861 7.63111 10.2172 7.84153 10.105L10.3177 8.68941C10.5286 8.5701 10.7661 8.50746 11.0077 8.50746C11.2493 8.50746 11.4868 8.5701 11.6977 8.68941L14.1739 10.105C14.3787 10.224 14.5497 10.3944 14.6705 10.5999C14.7913 10.8053 14.8577 11.0389 14.8635 11.2779V13.1385L17.0148 11.8846V10.0241C17.0176 9.78324 16.9547 9.54624 16.833 9.33927C16.7114 9.1323 16.5356 8.96339 16.3252 8.85119L11.7384 6.18194C11.5275 6.06263 11.2899 6 11.0484 6C10.8068 6 10.5692 6.06263 10.3583 6.18194L5.68967 8.85137C5.47928 8.96356 5.30356 9.13244 5.18188 9.33937C5.0602 9.54631 4.99729 9.78327 5.00009 10.0241V15.4034C4.99726 15.6443 5.06015 15.8813 5.18183 16.0883C5.30351 16.2953 5.47925 16.4642 5.68967 16.5764L10.3578 19.2458C10.5687 19.3651 10.8062 19.4277 11.0478 19.4277C11.2894 19.4277 11.5269 19.3651 11.7378 19.2458L14.9039 17.4257L17.0552 16.1719L20.2215 14.3518C20.4324 14.2324 20.67 14.1697 20.9115 14.1697C21.1531 14.1697 21.3907 14.2324 21.6016 14.3518L24.0777 15.7674C24.2825 15.8864 24.4535 16.0569 24.5743 16.2623C24.6951 16.4678 24.7616 16.7013 24.7673 16.9404V19.812C24.7701 20.0529 24.7072 20.2899 24.5856 20.4969C24.4639 20.7039 24.2881 20.8728 24.0777 20.985L21.6016 22.441C21.3907 22.5603 21.1531 22.623 20.9115 22.623C20.67 22.623 20.4324 22.5603 20.2215 22.441L17.7454 21.0254C17.5406 20.9064 17.3696 20.736 17.2488 20.5305C17.128 20.3251 17.0615 20.0916 17.0558 19.8525V17.9918L14.9045 19.2456V21.1061C14.9016 21.347 14.9645 21.584 15.0862 21.791C15.2079 21.998 15.3836 22.1669 15.5941 22.2791L20.2622 24.9485C20.4731 25.0678 20.7106 25.1304 20.9522 25.1304C21.1938 25.1304 21.4313 25.0678 21.6422 24.9485L26.3103 22.2791C26.5151 22.1601 26.6861 21.9896 26.8069 21.7842C26.9277 21.5787 26.9942 21.3452 26.9999 21.1061V15.727C27.0027 15.4861 26.9398 15.2491 26.8182 15.0421C26.6965 14.8352 26.5207 14.6663 26.3103 14.5541L21.6021 11.8442Z" fill="white"/>
</g>
<defs>
<clipPath id="clip0_4600_15611">
<rect width="32" height="32" fill="white"/>
</clipPath>
</defs>
</svg>
