<svg width="40" height="40" viewBox="0 0 40 40" fill="none" xmlns="http://www.w3.org/2000/svg">
<circle cx="20" cy="20" r="20" fill="#E78613"/>
<path fill-rule="evenodd" clip-rule="evenodd" d="M18.5949 18.5196L19.6842 14.4097C19.7976 14.4394 19.9357 14.4718 20.0918 14.5085L20.0948 14.5093C21.5405 14.8493 24.5312 15.5525 23.9576 17.7463C23.3904 19.8645 20.3573 19.0126 18.949 18.6171C18.8151 18.5795 18.6959 18.546 18.5949 18.5196ZM23.2158 24.3852C23.8574 21.9819 20.2558 21.1244 18.5236 20.712L18.5162 20.7102C18.3333 20.6666 18.1715 20.6281 18.0381 20.5932L16.8382 25.1267C16.9551 25.1573 17.0924 25.1954 17.2462 25.2382C18.9306 25.7062 22.6036 26.7268 23.2158 24.3852ZM15.1002 18.1315L14.8812 18.0742L13.4425 23.4651C13.3336 23.714 13.0722 24.0983 12.484 23.9445C12.4909 23.9564 12.3137 23.9132 12.0787 23.8515C11.6329 23.7345 10.9787 23.5509 10.9787 23.5509L9.91142 25.8999L12.5898 26.6148C12.8446 26.6814 13.0917 26.7497 13.337 26.8175C13.5789 26.8844 13.8194 26.9509 14.0641 27.0148L13.1571 30.4277L15.2197 30.9817L16.1194 27.596C16.3953 27.6754 16.6687 27.7505 16.9387 27.8247C17.2144 27.9005 17.4866 27.9753 17.7543 28.0527L16.8581 31.4246L18.9207 31.9785L19.8277 28.5656C23.3395 29.2794 26.0003 29.0553 27.1655 25.8851C28.0977 23.3256 27.1837 21.8456 25.3384 20.8521C26.6997 20.5657 27.7173 19.6929 28.0212 17.8597C28.4281 15.3527 26.549 13.9854 23.945 13.0418L24.8449 9.65621L22.7822 9.10231L21.9211 12.3958C21.3738 12.2527 20.8228 12.1233 20.2756 11.9802L21.1574 8.66289L19.0949 8.10902L18.195 11.4946C17.9493 11.4382 17.7087 11.3789 17.4724 11.3188C17.2711 11.2676 17.073 11.2158 16.8778 11.1648L16.8814 11.1511L14.0388 10.3933L13.4636 12.5935C13.4636 12.5935 14.9896 12.9633 14.9551 12.9835C15.7898 13.2017 15.9348 13.7652 15.896 14.1931L14.8748 18.0433C14.9085 18.0598 14.9471 18.0735 14.9874 18.0879L14.9896 18.0886C15.026 18.1016 15.0635 18.115 15.1002 18.1315Z" fill="white"/>
</svg>
