<svg width="40" height="40" viewBox="0 0 40 40" fill="none" xmlns="http://www.w3.org/2000/svg">
<g clip-path="url(#clip0_796_19913)">
<circle cx="20" cy="20" r="20" fill="#0033AD"/>
<path d="M12.4715 20.2895C12.4004 21.525 13.3515 22.5827 14.587 22.6538C14.6314 22.6538 14.6759 22.6538 14.7203 22.6538C15.9647 22.6538 16.9691 21.6494 16.9602 20.4051C16.9602 19.1607 15.9558 18.1563 14.7114 18.1652C13.5204 18.1652 12.5337 19.0984 12.4715 20.2895Z" fill="white"/>
<path d="M4.09865 19.7117C3.69867 19.6851 3.35202 19.9962 3.33424 20.3962C3.31646 20.7961 3.61867 21.1428 4.01866 21.1606C4.41864 21.1872 4.7564 20.8761 4.78307 20.4761C4.80973 20.0762 4.49863 19.7384 4.09865 19.7117Z" fill="white"/>
<path d="M12.3292 7.25908C12.6847 7.08131 12.8269 6.63688 12.6492 6.28134C12.4714 5.9258 12.027 5.78359 11.6714 5.96136C11.3159 6.13913 11.1737 6.57466 11.3514 6.9302C11.5292 7.29463 11.9647 7.44574 12.3292 7.25908C12.3292 7.25908 12.3203 7.25908 12.3292 7.25908Z" fill="white"/>
<path d="M14.6048 11.2321C15.1559 10.9566 15.3781 10.2811 15.1025 9.72997C14.827 9.17888 14.1515 8.95667 13.6004 9.23221C13.0493 9.50776 12.8271 10.1833 13.1026 10.7344C13.3782 11.2855 14.0537 11.5077 14.6048 11.2321Z" fill="white"/>
<path d="M6.94283 13.961C7.36948 14.2365 7.93834 14.121 8.22277 13.6943C8.49831 13.2677 8.38276 12.6988 7.95612 12.4144C7.52947 12.1388 6.96061 12.2544 6.67617 12.681C6.39174 13.1077 6.51618 13.6854 6.94283 13.961Z" fill="white"/>
<path d="M8.30271 19.3118C7.68051 19.2762 7.15609 19.7473 7.12054 20.3695C7.08499 20.9917 7.55608 21.5161 8.17827 21.5517C8.80046 21.5872 9.32489 21.1161 9.36044 20.4939C9.39599 19.8806 8.9249 19.3473 8.30271 19.3118Z" fill="white"/>
<path d="M7.0673 26.8403C6.61399 27.0714 6.42733 27.6224 6.65843 28.0846C6.88953 28.538 7.44062 28.7246 7.90282 28.4935C8.35613 28.2624 8.54279 27.7113 8.31169 27.2491C8.08059 26.7958 7.52061 26.6092 7.0673 26.8403Z" fill="white"/>
<path d="M11.4226 16.9918C12.0359 17.3918 12.8537 17.2229 13.2447 16.6096C13.6447 15.9963 13.4758 15.1786 12.8625 14.7875C12.2492 14.3875 11.4315 14.5564 11.0404 15.1697C10.6404 15.7741 10.8093 16.5918 11.4226 16.9918Z" fill="white"/>
<path d="M25.2443 11.1433C25.7598 11.481 26.462 11.3388 26.7997 10.8233C27.1375 10.3078 26.9953 9.60556 26.4798 9.2678C25.9642 8.93004 25.262 9.07225 24.9243 9.58779C24.5776 10.1122 24.7198 10.8055 25.2443 11.1433Z" fill="white"/>
<path d="M27.5374 7.18788C27.8752 7.41009 28.3196 7.31232 28.5418 6.97456C28.764 6.63679 28.6663 6.19237 28.3285 5.97016C27.9907 5.74795 27.5463 5.84572 27.3241 6.17459C27.1108 6.51236 27.2086 6.96567 27.5374 7.18788Z" fill="white"/>
<path d="M25.413 18.1473C24.1775 18.0762 23.1109 19.0273 23.0487 20.2628C22.9776 21.4983 23.9286 22.5649 25.1641 22.6271C25.2086 22.6271 25.253 22.6271 25.2886 22.6271C26.5241 22.6271 27.5285 21.6227 27.5285 20.3783C27.5374 19.1961 26.6041 18.2095 25.413 18.1473Z" fill="white"/>
<path d="M15.3426 16.8319C15.7248 17.5875 16.4981 18.0674 17.3514 18.0674C18.5869 18.0674 19.5913 17.063 19.5913 15.8186C19.5913 15.472 19.5113 15.1253 19.3513 14.8054C18.7914 13.6943 17.4403 13.2499 16.3381 13.8098C15.2271 14.3787 14.7826 15.7298 15.3426 16.8319Z" fill="white"/>
<path d="M32.9327 13.961C33.386 13.7299 33.5638 13.1699 33.3327 12.7166C33.1016 12.2633 32.5416 12.0855 32.0883 12.3166C31.635 12.5477 31.4572 13.0988 31.6794 13.5521C31.9194 14.0054 32.4705 14.1921 32.9327 13.961Z" fill="white"/>
<path d="M27.2443 14.672C26.5955 15.0008 26.3288 15.7919 26.6577 16.4408C26.9865 17.0896 27.7776 17.3563 28.4265 17.0274C29.0753 16.6985 29.342 15.9075 29.0131 15.2586C28.6843 14.6097 27.8932 14.352 27.2443 14.672Z" fill="white"/>
<path d="M19.9114 6.85012C20.4181 6.87679 20.8536 6.48569 20.8892 5.97905C20.9247 5.4724 20.5247 5.03687 20.0181 5.00131C19.5114 4.97465 19.0759 5.35685 19.0403 5.8635C19.0137 6.37903 19.4048 6.81457 19.9114 6.85012Z" fill="white"/>
<path d="M19.9023 12.6543C20.6311 12.6987 21.2533 12.1387 21.2889 11.4099C21.3333 10.681 20.7733 10.0588 20.0445 10.0233C19.3156 9.97884 18.6934 10.5388 18.6579 11.2677C18.6223 11.9965 19.1734 12.6187 19.9023 12.6543Z" fill="white"/>
<path d="M12.7561 26.1292C13.4049 25.8003 13.6716 25.0093 13.3427 24.3604C13.0138 23.7115 12.2228 23.4449 11.5739 23.7738C10.925 24.1026 10.6584 24.8937 10.9873 25.5426C11.3161 26.1914 12.1072 26.4581 12.7561 26.1292Z" fill="white"/>
<path d="M20.7556 14.5831C20.0801 15.6231 20.3645 17.0097 21.4045 17.6852C22.4444 18.3607 23.831 18.0763 24.5066 17.0363C25.1821 15.9964 24.8977 14.6098 23.8577 13.9343C23.4933 13.6943 23.0666 13.5698 22.6311 13.5698C21.8756 13.5698 21.1734 13.952 20.7556 14.5831Z" fill="white"/>
<path d="M24.6575 23.9694C24.0975 22.8583 22.7465 22.4139 21.6443 22.9738C20.5332 23.5338 20.0888 24.8849 20.6488 25.987C21.2087 27.0981 22.5598 27.5425 23.662 26.9826C24.7641 26.4315 25.2175 25.0982 24.6664 23.9871C24.6664 23.9782 24.6664 23.9782 24.6575 23.9694Z" fill="white"/>
<path d="M28.5774 23.8094C27.9641 23.4095 27.1463 23.5783 26.7552 24.1917C26.3553 24.805 26.5241 25.6227 27.1375 26.0138C27.7508 26.4138 28.5685 26.2449 28.9596 25.6316C29.3596 25.0272 29.1907 24.2094 28.5774 23.8094Z" fill="white"/>
<path d="M32.8795 20.4407C32.915 19.8185 32.4439 19.2941 31.8218 19.2585C31.1996 19.223 30.6751 19.6941 30.6396 20.3163C30.604 20.9385 31.0751 21.4629 31.6973 21.4984C32.3106 21.534 32.8439 21.054 32.8795 20.4407Z" fill="white"/>
<path d="M35.982 19.6407C35.582 19.614 35.2353 19.9251 35.2175 20.3251C35.1998 20.7251 35.502 21.0717 35.902 21.0895C36.3019 21.1162 36.6397 20.8051 36.6664 20.4051C36.6841 20.0051 36.3819 19.6674 35.982 19.6407Z" fill="white"/>
<path d="M33.0577 26.8403C32.631 26.5648 32.0622 26.6803 31.7777 27.107C31.5022 27.5336 31.6177 28.1025 32.0444 28.3869C32.471 28.6625 33.0399 28.5469 33.3243 28.1203C33.6087 27.6936 33.4843 27.1159 33.0577 26.8403Z" fill="white"/>
<path d="M12.4537 33.6133C12.116 33.3911 11.6716 33.4889 11.4493 33.8178C11.2271 34.1555 11.3249 34.6 11.6538 34.8222C11.9915 35.0444 12.436 34.9466 12.6582 34.6177C12.8893 34.2889 12.7915 33.8356 12.4537 33.6133Z" fill="white"/>
<path d="M27.6709 33.5423C27.3154 33.72 27.1732 34.1644 27.3509 34.52C27.5287 34.8755 27.9731 35.0177 28.3287 34.84C28.6842 34.6622 28.8264 34.2267 28.6487 33.8711C28.4709 33.5067 28.0354 33.3556 27.6709 33.5423C27.6798 33.5423 27.6709 33.5423 27.6709 33.5423Z" fill="white"/>
<path d="M19.2445 26.2182C19.92 25.1782 19.6356 23.7916 18.5956 23.1072C17.5557 22.4317 16.1691 22.7161 15.4846 23.756C14.8002 24.796 15.0935 26.1826 16.1335 26.867C16.4979 27.107 16.9246 27.2314 17.3601 27.2314C18.1245 27.2403 18.8267 26.8581 19.2445 26.2182Z" fill="white"/>
<path d="M14.7558 29.6579C14.2402 29.3202 13.5381 29.4624 13.2003 29.9779C12.8625 30.4935 13.0047 31.1956 13.5203 31.5334C14.0358 31.8712 14.738 31.729 15.0758 31.2134C15.4224 30.6979 15.2802 29.9957 14.7558 29.6579Z" fill="white"/>
<path d="M19.9912 33.9511C19.4845 33.9245 19.049 34.3155 19.0134 34.8222C18.9779 35.3288 19.3779 35.7644 19.8845 35.7999C20.3911 35.8266 20.8267 35.4444 20.8622 34.9377C20.8889 34.4222 20.4978 33.9867 19.9912 33.9511Z" fill="white"/>
<path d="M20.0004 28.1469C19.2716 28.1025 18.6494 28.6625 18.6138 29.3913C18.5694 30.1202 19.1293 30.7424 19.8582 30.7779C20.587 30.8135 21.2092 30.2624 21.2448 29.5335C21.2892 28.8136 20.7293 28.1825 20.0004 28.1469Z" fill="white"/>
<path d="M25.3956 29.5691C24.8445 29.8536 24.6223 30.5291 24.9067 31.0802C25.1912 31.6313 25.8667 31.8535 26.4178 31.569C26.9689 31.2935 27.1911 30.618 26.9155 30.0669C26.6311 29.5158 25.9556 29.2847 25.3956 29.5691Z" fill="white"/>
</g>
<defs>
<clipPath id="clip0_796_19913">
<rect width="40" height="40" fill="white"/>
</clipPath>
</defs>
</svg>
