<svg width="40" height="40" viewBox="0 0 40 40" fill="none" xmlns="http://www.w3.org/2000/svg">
<g clip-path="url(#clip0_796_19955)">
<path d="M20 0C31.0467 0 40 8.95509 40 20C40 31.0467 31.0467 40 20 40C8.95509 40 0 31.0458 0 20C0 8.95509 8.95509 0 20 0Z" fill="#F5AC37"/>
<path d="M20.7373 21.4121H28.337C28.499 21.4121 28.5755 21.4121 28.5872 21.1997C28.6493 20.4266 28.6493 19.649 28.5872 18.875C28.5872 18.7247 28.5125 18.6626 28.3496 18.6626H13.2249C13.0377 18.6626 12.9873 18.7247 12.9873 18.9002V21.125C12.9873 21.4121 12.9873 21.4121 13.287 21.4121H20.7373ZM27.7385 16.0624C27.7601 16.0057 27.7601 15.9436 27.7385 15.8878C27.6116 15.6115 27.4613 15.3478 27.2867 15.1003C27.0239 14.6773 26.7143 14.2876 26.3615 13.9375C26.195 13.726 26.0024 13.5361 25.7864 13.375C24.7046 12.4543 23.4184 11.8027 22.036 11.4751C21.3385 11.3185 20.6257 11.2438 19.9111 11.2501H13.1988C13.0116 11.2501 12.9864 11.3248 12.9864 11.4877V15.9247C12.9864 16.1119 12.9864 16.1623 13.224 16.1623H27.6485C27.6485 16.1623 27.7736 16.1371 27.7988 16.0624H27.7376H27.7385ZM27.7385 24.0122C27.5261 23.9888 27.3119 23.9888 27.0995 24.0122H13.2375C13.0503 24.0122 12.9873 24.0122 12.9873 24.2624V28.6005C12.9873 28.8003 12.9873 28.8507 13.2375 28.8507H19.6375C19.9435 28.8741 20.2495 28.8525 20.5492 28.7886C21.478 28.722 22.3915 28.5204 23.2627 28.1883C23.5795 28.0785 23.8856 27.9354 24.1745 27.7635H24.2618C25.7621 26.9832 26.9807 25.7573 27.7493 24.2525C27.7493 24.2525 27.8366 24.0635 27.7385 24.014V24.0122ZM10.4754 31.0998V31.0251V28.1127V27.1254V24.1877C10.4754 24.0248 10.4754 24.0005 10.2756 24.0005H7.56299C7.41269 24.0005 7.35059 24.0005 7.35059 23.8007V21.4256H10.2504C10.4124 21.4256 10.4754 21.4256 10.4754 21.2132V18.8633C10.4754 18.713 10.4754 18.6761 10.2756 18.6761H7.56299C7.41269 18.6761 7.35059 18.6761 7.35059 18.4763V16.2766C7.35059 16.1389 7.35059 16.102 7.55039 16.102H10.2378C10.425 16.102 10.4754 16.102 10.4754 15.8644V9.12697C10.4754 8.92717 10.4754 8.87677 10.7256 8.87677H20.1001C20.7805 8.90377 21.4564 8.97847 22.1251 9.10177C23.503 9.35647 24.827 9.84878 26.0375 10.5517C26.8403 11.0242 27.5792 11.5948 28.2371 12.2518C28.7321 12.7657 29.1785 13.3219 29.5745 13.9141C29.9678 14.5144 30.2945 15.1561 30.551 15.8266C30.5825 16.0012 30.7499 16.1191 30.9245 16.0894H33.1619C33.449 16.0894 33.449 16.0894 33.4616 16.3648V18.4151C33.4616 18.6149 33.3869 18.6653 33.1862 18.6653H31.4609C31.2863 18.6653 31.2359 18.6653 31.2485 18.8903C31.3169 19.6517 31.3169 20.4158 31.2485 21.1772C31.2485 21.3896 31.2485 21.4148 31.487 21.4148H33.4607C33.548 21.5273 33.4607 21.6398 33.4607 21.7532C33.4733 21.8981 33.4733 22.0448 33.4607 22.1897V23.7026C33.4607 23.915 33.3986 23.978 33.2105 23.978H30.848C30.6833 23.9465 30.5231 24.0518 30.4853 24.2156C29.9228 25.6781 29.0228 26.9895 27.86 28.0407C27.4352 28.4232 26.9888 28.7832 26.5226 29.1153C26.0222 29.4033 25.5353 29.703 25.0223 29.9406C24.0782 30.3654 23.0881 30.6786 22.072 30.8775C21.1072 31.0503 20.1289 31.1286 19.147 31.1151H10.4718V31.1025L10.4754 31.0998Z" fill="#FEFEFD"/>
</g>
<defs>
<clipPath id="clip0_796_19955">
<rect width="40" height="40" fill="white"/>
</clipPath>
</defs>
</svg>
