<svg width="40" height="40" viewBox="0 0 40 40" fill="none" xmlns="http://www.w3.org/2000/svg">
<g clip-path="url(#clip0_796_19425)">
<path d="M20 40C31.0457 40 40 31.0457 40 20C40 8.9543 31.0457 0 20 0C8.9543 0 0 8.9543 0 20C0 31.0457 8.9543 40 20 40Z" fill="#454647"/>
<path fill-rule="evenodd" clip-rule="evenodd" d="M20.8335 0.834045H19.1668V5.83405H20.8335V0.834045ZM20.8335 34.1674H19.1668V39.1674H20.8335V34.1674ZM39.1668 20.834V19.1674H34.1668V20.834H39.1668ZM5.8335 20.834V19.1674H0.833496V20.834H5.8335ZM25.7658 1.70297L24.1559 1.27161L22.8619 6.10124L24.4717 6.5326L25.7658 1.70297ZM17.1385 33.9005L15.5286 33.4691L14.2345 38.2988L15.8444 38.7301L17.1385 33.9005ZM38.2981 25.7665L38.7294 24.1566L33.8998 22.8625L33.4685 24.4724L38.2981 25.7665ZM6.10055 17.1392L6.53192 15.5293L1.70229 14.2352L1.27093 15.8451L6.10055 17.1392ZM28.8617 2.98533L30.3051 3.81866L27.8051 8.14879L26.3617 7.31546L28.8617 2.98533ZM12.195 31.8528L13.6384 32.6862L11.1384 37.0163L9.69504 36.183L12.195 31.8528ZM37.0156 28.8625L36.1822 30.3058L31.8521 27.8058L32.6854 26.3625L37.0156 28.8625ZM8.14804 12.1958L7.31471 13.6392L2.98458 11.1392L3.81791 9.6958L8.14804 12.1958ZM34.1423 7.03713L32.9638 5.85862L29.4283 9.39416L30.6068 10.5727L34.1423 7.03713ZM10.5721 30.6074L9.39356 29.4288L5.85803 32.9644L7.03654 34.1429L10.5721 30.6074ZM32.9638 34.1429L34.1423 32.9644L30.6068 29.4288L29.4283 30.6074L32.9638 34.1429ZM9.39356 10.5727L10.5721 9.39416L7.03654 5.85862L5.85803 7.03713L9.39356 10.5727ZM36.1824 9.6958L37.0157 11.1392L32.6856 13.6392L31.8523 12.1958L36.1824 9.6958ZM7.3149 26.3625L8.14823 27.8058L3.8181 30.3058L2.98477 28.8625L7.3149 26.3625ZM30.3053 36.183L28.8619 37.0163L26.3619 32.6862L27.8053 31.8528L30.3053 36.183ZM13.6386 7.31546L12.1952 8.14879L9.69524 3.81866L11.1386 2.98533L13.6386 7.31546ZM38.7294 15.8451L38.298 14.2352L33.4684 15.5293L33.8998 17.1392L38.7294 15.8451ZM6.53187 24.4724L6.10051 22.8625L1.27088 24.1566L1.70224 25.7665L6.53187 24.4724ZM24.1559 38.7301L25.7658 38.2988L24.4717 33.4691L22.8618 33.9005L24.1559 38.7301ZM15.5286 6.5326L17.1385 6.10124L15.8444 1.27161L14.2345 1.70297L15.5286 6.5326Z" fill="black" fill-opacity="0.1"/>
<path d="M15.8214 17.593V15.8182H24.1836V17.593H21.0664V26H18.9386V17.593H15.8214Z" fill="white"/>
</g>
<defs>
<clipPath id="clip0_796_19425">
<rect width="40" height="40" fill="white"/>
</clipPath>
</defs>
</svg>
