<svg width="40" height="40" viewBox="0 0 40 40" fill="none" xmlns="http://www.w3.org/2000/svg">
<g clip-path="url(#clip0_796_19947)">
<circle cx="20" cy="20" r="20" fill="#0C0C0C"/>
<path d="M17.6226 13.18H20.4802C21.549 13.18 26.9262 13.6102 26.9348 20.2516C26.9433 26.8139 21.5218 26.8071 20.6497 26.806C20.6392 26.806 20.6293 26.806 20.6202 26.806H17.6226V21.1726H22.1184V18.8138H17.6226V13.18Z" fill="#C2A633"/>
<path fill-rule="evenodd" clip-rule="evenodd" d="M0 20C0 8.9542 8.9542 0 20 0C31.0458 0 40 8.9542 40 20C40 31.0458 31.0458 40 20 40C8.9542 40 0 31.0458 0 20ZM13.5428 30.802H20.7858C20.7858 30.802 30.9702 31.6556 30.9702 20.1738C30.9702 9.13716 21.6701 9.1763 19.8727 9.18386C19.8306 9.18404 19.7926 9.1842 19.759 9.1842H13.5426V18.814H10.9896V21.1728H13.5428V30.802Z" fill="#C2A633"/>
</g>
<defs>
<clipPath id="clip0_796_19947">
<rect width="40" height="40" fill="white"/>
</clipPath>
</defs>
</svg>
