<svg width="40" height="40" viewBox="0 0 40 40" fill="none" xmlns="http://www.w3.org/2000/svg">
<circle cx="20" cy="20" r="20" fill="#CFF1FF"/>
<path d="M6.6665 12.3078L19.9998 20.0031V25.1332L11.1109 20.0031V30.2634L6.6665 27.6983V12.3078Z" fill="#2891F9"/>
<path d="M11.1113 30.2634V20.0031L15.5558 22.5681V27.6983L11.1113 30.2634Z" fill="#2BBDF7"/>
<path d="M6.6665 12.3078L11.1109 9.74274L24.4443 17.438L19.9998 20.0031L6.6665 12.3078Z" fill="#2B6DEF"/>
<path d="M20 20.0031L24.4444 17.438V22.5681L20 25.1332V20.0031Z" fill="#2BBDF7"/>
<path d="M24.4443 12.3078V27.6983L28.8888 30.2634V14.8729L24.4443 12.3078Z" fill="#2891F9"/>
<path d="M33.3331 12.3078L28.8887 14.8729V30.2634L33.3331 27.6983V12.3078Z" fill="#2BBDF7"/>
<path d="M28.8888 9.74274L33.3332 12.3078L28.8888 14.8729L24.4443 12.3078L28.8888 9.74274Z" fill="#2B6DEF"/>
</svg>
