<svg width="40" height="40" viewBox="0 0 40 40" fill="none" xmlns="http://www.w3.org/2000/svg">
<circle cx="20" cy="20" r="20" fill="url(#paint0_linear_796_19959)"/>
<g clip-path="url(#clip0_796_19959)">
<path d="M10.998 25.1184C11.1589 24.9575 11.3802 24.8636 11.6148 24.8636H32.8972C33.2861 24.8636 33.4806 25.333 33.2057 25.6079L29.0015 29.812C28.8406 29.973 28.6193 30.0668 28.3846 30.0668H7.10223C6.71333 30.0668 6.51888 29.5975 6.79379 29.3226L10.998 25.1184Z" fill="white"/>
<path d="M10.998 9.42149C11.1656 9.26056 11.3869 9.16669 11.6148 9.16669H32.8972C33.2861 9.16669 33.4806 9.63605 33.2057 9.91097L29.0015 14.1151C28.8406 14.2761 28.6193 14.3699 28.3846 14.3699H7.10223C6.71333 14.3699 6.51888 13.9006 6.79379 13.6257L10.998 9.42149Z" fill="white"/>
<path d="M29.0015 17.2196C28.8406 17.0587 28.6193 16.9648 28.3846 16.9648H7.10223C6.71333 16.9648 6.51888 17.4342 6.79379 17.7091L10.998 21.9133C11.1589 22.0742 11.3802 22.1681 11.6148 22.1681H32.8972C33.2861 22.1681 33.4806 21.6987 33.2057 21.4238L29.0015 17.2196Z" fill="white"/>
</g>
<defs>
<linearGradient id="paint0_linear_796_19959" x1="31.4344" y1="-92.2618" x2="-59.0666" y2="-58.4417" gradientUnits="userSpaceOnUse">
<stop stop-color="#00FFA3"/>
<stop offset="1" stop-color="#DC1FFF"/>
</linearGradient>
<clipPath id="clip0_796_19959">
<rect width="26.6667" height="20.9002" fill="white" transform="translate(6.6665 9.16669)"/>
</clipPath>
</defs>
</svg>
