<svg width="40" height="40" viewBox="0 0 40 40" fill="none" xmlns="http://www.w3.org/2000/svg">
<g clip-path="url(#clip0_796_19951)">
<path d="M20 40C31.0834 40 40 31.0834 40 20C40 8.9166 31.0834 0 20 0C8.9166 0 0 8.9166 0 20C0 31.0834 8.9166 40 20 40Z" fill="#2775CA"/>
<path d="M25.5001 23.1666C25.5001 20.25 23.7501 19.25 20.2501 18.8334C17.7501 18.5 17.2501 17.8334 17.2501 16.6666C17.2501 15.4998 18.0835 14.75 19.7501 14.75C21.2501 14.75 22.0835 15.25 22.5001 16.5C22.5835 16.75 22.8335 16.9166 23.0835 16.9166H24.4167C24.7501 16.9166 25.0001 16.6666 25.0001 16.3334V16.25C24.6667 14.4166 23.1667 13 21.2501 12.8334V10.8334C21.2501 10.5 21.0001 10.25 20.5835 10.1666H19.3335C19.0001 10.1666 18.7501 10.4166 18.6667 10.8334V12.75C16.1667 13.0834 14.5835 14.75 14.5835 16.8334C14.5835 19.5834 16.2501 20.6666 19.7501 21.0834C22.0835 21.5 22.8335 22 22.8335 23.3334C22.8335 24.6668 21.6667 25.5834 20.0835 25.5834C17.9167 25.5834 17.1667 24.6666 16.9167 23.4166C16.8335 23.0834 16.5835 22.9166 16.3335 22.9166H14.9167C14.5835 22.9166 14.3335 23.1666 14.3335 23.5V23.5834C14.6667 25.6666 16.0001 27.1666 18.7501 27.5834V29.5834C18.7501 29.9166 19.0001 30.1666 19.4167 30.25H20.6667C21.0001 30.25 21.2501 30 21.3335 29.5834V27.5834C23.8335 27.1666 25.5001 25.4166 25.5001 23.1666Z" fill="white"/>
<path d="M15.7502 31.9166C9.25016 29.5834 5.91676 22.3334 8.33356 15.9166C9.58356 12.4166 12.3336 9.74997 15.7502 8.49997C16.0836 8.33337 16.2502 8.08337 16.2502 7.66657V6.49997C16.2502 6.16657 16.0836 5.91657 15.7502 5.83337C15.6668 5.83337 15.5002 5.83337 15.4168 5.91657C7.50016 8.41657 3.16676 16.8334 5.66676 24.75C7.16676 29.4166 10.7502 33 15.4168 34.5C15.7502 34.6666 16.0836 34.5 16.1668 34.1666C16.2502 34.0834 16.2502 34 16.2502 33.8334V32.6666C16.2502 32.4166 16.0002 32.0834 15.7502 31.9166ZM24.5836 5.91657C24.2502 5.74997 23.9168 5.91657 23.8336 6.24997C23.7502 6.33337 23.7502 6.41657 23.7502 6.58337V7.74997C23.7502 8.08337 24.0002 8.41657 24.2502 8.58337C30.7502 10.9166 34.0836 18.1666 31.6668 24.5834C30.4168 28.0834 27.6668 30.75 24.2502 32C23.9168 32.1666 23.7502 32.4166 23.7502 32.8334V34C23.7502 34.3334 23.9168 34.5834 24.2502 34.6666C24.3336 34.6666 24.5002 34.6666 24.5836 34.5834C32.5002 32.0834 36.8336 23.6666 34.3336 15.75C32.8336 11 29.1668 7.41657 24.5836 5.91657Z" fill="white"/>
</g>
<defs>
<clipPath id="clip0_796_19951">
<rect width="40" height="40" fill="white"/>
</clipPath>
</defs>
</svg>
