<svg width="40" height="40" viewBox="0 0 40 40" fill="none" xmlns="http://www.w3.org/2000/svg">
<g clip-path="url(#clip0_796_19973)">
<path d="M20 0C31.0452 0 40 8.9548 40 20C40 31.0452 31.0448 40 20 40C8.9552 40 0 31.0476 0 20C0 8.9524 8.9536 0 20 0Z" fill="#53AE94"/>
<path d="M22.4682 17.3352V14.36H29.2718V9.82678H10.7454V14.36H17.5498V17.3328C12.0198 17.5868 7.86182 18.682 7.86182 19.994C7.86182 21.306 12.0218 22.4012 17.5498 22.6568V32.1868H22.4698V22.656C27.9898 22.4012 32.1394 21.3068 32.1394 19.996C32.1394 18.6852 27.9898 17.5908 22.4698 17.336M22.4698 21.8488V21.8464C22.331 21.8552 21.6178 21.898 20.0298 21.898C18.7602 21.898 17.867 21.862 17.5522 21.8456V21.8496C12.6666 21.6332 9.01982 20.7824 9.01982 19.7644C9.01982 18.7464 12.667 17.8968 17.5522 17.68V21.002C17.8722 21.024 18.7874 21.078 20.0506 21.078C21.5678 21.078 22.3306 21.0148 22.4706 21.002V17.68C27.3466 17.8972 30.985 18.7488 30.985 19.7632C30.985 20.7776 27.345 21.6296 22.4706 21.8468" fill="white"/>
</g>
<defs>
<clipPath id="clip0_796_19973">
<rect width="40" height="40" fill="white"/>
</clipPath>
</defs>
</svg>
