<svg width="40" height="40" viewBox="0 0 40 40" fill="none" xmlns="http://www.w3.org/2000/svg">
<circle cx="20" cy="20" r="20" fill="white"/>
<g clip-path="url(#clip0_796_19986)">
<path d="M19.7338 3.125L19.5073 3.89412V26.2101L19.7338 26.436L30.0924 20.313L19.7338 3.125Z" fill="#343434"/>
<path d="M19.7339 3.125L9.375 20.313L19.7339 26.436V15.6045V3.125Z" fill="#8C8C8C"/>
<path d="M19.7341 28.3973L19.6064 28.5529V36.5022L19.7341 36.8747L30.099 22.2773L19.7341 28.3973Z" fill="#3C3C3B"/>
<path d="M19.7339 36.8747V28.3973L9.375 22.2773L19.7339 36.8747Z" fill="#8C8C8C"/>
<path d="M19.7339 26.436L30.0925 20.3129L19.7339 15.6044V26.436Z" fill="#141414"/>
<path d="M9.375 20.3129L19.7339 26.436V15.6044L9.375 20.3129Z" fill="#393939"/>
</g>
<defs>
<clipPath id="clip0_796_19986">
<rect width="20.7239" height="33.75" fill="white" transform="translate(9.375 3.125)"/>
</clipPath>
</defs>
</svg>
