<svg width="40" height="40" viewBox="0 0 40 40" fill="none" xmlns="http://www.w3.org/2000/svg">
<g clip-path="url(#clip0_796_19907)">
<circle cx="20" cy="20" r="20" fill="#23292F"/>
<path d="M29.4702 9.16669H33.3244L25.3036 17.1084C22.3989 19.9828 17.6895 19.9828 14.7827 17.1084L6.75879 9.16669H10.6161L16.7098 15.1995C17.5977 16.0746 18.7942 16.5651 20.0408 16.5651C21.2874 16.5651 22.484 16.0746 23.3718 15.1995L29.4702 9.16669Z" fill="white"/>
<path d="M10.5667 31.25H6.70996L14.7829 23.2594C17.6876 20.3849 22.3969 20.3849 25.3037 23.2594L33.3766 31.25H29.5225L23.3766 25.1682C22.4888 24.2932 21.2922 23.8026 20.0456 23.8026C18.799 23.8026 17.6025 24.2932 16.7146 25.1682L10.5667 31.25Z" fill="white"/>
</g>
<defs>
<clipPath id="clip0_796_19907">
<rect width="40" height="40" fill="white"/>
</clipPath>
</defs>
</svg>
