<svg width="100" height="100" viewBox="0 0 100 100" fill="none" xmlns="http://www.w3.org/2000/svg">
<rect width="100" height="100" fill="url(#paint0_linear_4420_29687)"/>
<path d="M72.1596 70.2205L55.4198 29.7489C54.4756 27.6565 53.0721 26.6357 51.2221 26.6357H49.742C47.892 26.6357 46.4885 27.6565 45.5443 29.7489L38.2589 47.3819H32.747C31.1011 47.3946 29.7614 48.7216 29.7487 50.3803V50.4185C29.7614 52.0644 31.1011 53.4041 32.747 53.4169H35.7071L28.7535 70.2205C28.6259 70.5905 28.5493 70.9733 28.5493 71.3688C28.5493 72.313 28.8428 73.053 29.3659 73.6272C29.889 74.2013 30.6418 74.482 31.586 74.482C32.2112 74.4693 32.8108 74.2779 33.3084 73.9079C33.8443 73.5379 34.2143 73.002 34.5078 72.3895L42.1632 53.4041H47.4709C49.1168 53.3914 50.4565 52.0644 50.4693 50.4058V50.3292C50.4565 48.6833 49.1168 47.3436 47.4709 47.3309H44.6384L50.482 32.7728L66.4053 72.3768C66.6988 72.9892 67.0688 73.5251 67.6046 73.8951C68.1022 74.2651 68.7147 74.4565 69.3271 74.4693C70.2713 74.4693 71.0113 74.1886 71.5472 73.6144C72.0831 73.0403 72.3638 72.3002 72.3638 71.3561C72.3765 70.9733 72.3127 70.5778 72.1596 70.2205Z" fill="white"/>
<defs>
<linearGradient id="paint0_linear_4420_29687" x1="87.2793" y1="18.6323" x2="12.8793" y2="81.2323" gradientUnits="userSpaceOnUse">
<stop stop-color="#B6509E"/>
<stop offset="1" stop-color="#2EBAC6"/>
</linearGradient>
</defs>
</svg>
