<svg width="100" height="100" viewBox="0 0 100 100" fill="none" xmlns="http://www.w3.org/2000/svg">
<g clip-path="url(#clip0_4420_29629)">
<path d="M98.8701 0H1.12994C0.505893 0 0 0.505893 0 1.12994V98.8701C0 99.4941 0.505893 100 1.12994 100H98.8701C99.4941 100 100 99.4941 100 98.8701V1.12994C100 0.505893 99.4941 0 98.8701 0Z" fill="#5A4E4C"/>
<path fill-rule="evenodd" clip-rule="evenodd" d="M61.5333 40.623C64.0197 38.5485 66.7937 37.7593 69.4542 37.9588C72.292 38.1717 74.918 39.5019 76.8796 41.434C78.8406 43.3663 80.1881 45.9508 80.4039 48.7401C80.6214 51.5548 79.679 54.5028 77.1943 57.0899C76.9672 57.3283 76.7349 57.5633 76.4977 57.7955C65.2276 68.8972 50.2573 68.9266 50.1041 68.9266H50.1034C50.0268 68.9266 35.009 68.9261 23.7098 57.7944L23.7074 57.7916C23.4741 57.5605 23.2444 57.3278 23.0181 57.0939L23.0163 57.0916C20.5304 54.5067 19.5871 51.5594 19.804 48.7447C20.019 45.9559 21.3655 43.3711 23.3262 41.4381C25.2868 39.5053 27.9127 38.174 30.7511 37.9603C33.4113 37.76 36.1859 38.5483 38.6735 40.6217C38.9411 37.4237 40.3347 34.9347 42.3577 33.2236C44.5152 31.3985 47.3269 30.5085 50.1034 30.5085C52.88 30.5085 55.6916 31.3985 57.8491 33.2236C59.8722 34.9349 61.266 37.4244 61.5333 40.623ZM50.6194 67.8012L50.6188 67.7871H50.6198L50.6194 67.8012ZM49.5875 67.8012L49.5872 67.7871H49.5881L49.5875 67.8012ZM58.5705 52.3856C58.2621 52.3856 58.1553 52.8243 58.3519 53.0567C58.6999 53.4683 58.9095 53.9978 58.9095 54.5756C58.9095 55.8865 57.831 56.9492 56.5005 56.9492C55.1697 56.9492 54.0909 55.8865 54.0909 54.5756C54.0909 54.5054 53.9981 54.4706 53.9561 54.5274C53.5761 55.0416 53.3195 55.6188 53.2141 56.2249C53.1548 56.5662 52.8732 56.8492 52.5194 56.8492H52.3239C51.8621 56.8492 51.4812 56.4801 51.5493 56.0332C52.0165 52.9705 55.0804 50.7492 58.5705 50.7492C62.0604 50.7492 65.1242 52.9705 65.5914 56.0332C65.6592 56.4801 65.2784 56.8492 64.8169 56.8492C64.3547 56.8492 63.9892 56.4783 63.8886 56.0372C63.4321 54.0297 61.3146 52.3856 58.5705 52.3856ZM37.1749 54.5756C37.1749 54.4831 37.0533 54.4334 36.996 54.507C36.5898 55.0292 36.313 55.6206 36.1958 56.2439C36.1266 56.6119 35.8226 56.9182 35.44 56.9182H35.2966C34.8348 56.9182 34.4539 56.5492 34.522 56.1023C34.989 53.038 38.0532 50.8183 41.543 50.8183C45.0328 50.8183 48.097 53.038 48.564 56.1023C48.6322 56.5492 48.2512 56.9182 47.7894 56.9182C47.3276 56.9182 46.9619 56.5475 46.8616 56.1063C46.4051 54.0976 44.2876 52.4547 41.543 52.4547C41.2935 52.4547 41.2022 52.7998 41.3692 52.9811C41.7573 53.4024 41.9937 53.9618 41.9937 54.5756C41.9937 55.8865 40.915 56.9492 39.5843 56.9492C38.2536 56.9492 37.1749 55.8865 37.1749 54.5756ZM52.7838 60.3001C53.1101 59.9803 53.6146 59.8249 54.0198 60.0413C54.4251 60.2583 54.5788 60.7611 54.2868 61.1114C53.3356 62.2509 51.7955 62.9735 50.097 62.9735C48.3994 62.9735 46.8559 62.2588 45.9035 61.1102C45.6125 60.7594 45.7681 60.2566 46.1742 60.0413C46.5802 59.8261 47.0838 59.9837 47.4097 60.3035C48.0375 60.9204 48.9903 61.3374 50.097 61.3374C51.2008 61.3374 52.1546 60.9159 52.7838 60.3001Z" fill="#FFEBB8"/>
</g>
<defs>
<clipPath id="clip0_4420_29629">
<rect width="100" height="100" fill="white"/>
</clipPath>
</defs>
</svg>
