<svg width="100" height="100" viewBox="0 0 100 100" fill="none" xmlns="http://www.w3.org/2000/svg">
<g clip-path="url(#clip0_466_87735)">
<rect width="100" height="100" fill="#2081E2"/>
<path d="M50 100C77.6142 100 100 77.6142 100 50C100 22.3858 77.6142 0 50 0C22.3858 0 0 22.3858 0 50C0 77.6142 22.3858 100 50 100Z" fill="#2081E2"/>
<path d="M24.6682 51.68L24.8842 51.341L37.8902 30.993C37.9334 30.9256 37.994 30.8711 38.0657 30.8353C38.1373 30.7995 38.2172 30.7837 38.2971 30.7895C38.377 30.7953 38.4538 30.8226 38.5194 30.8685C38.5851 30.9143 38.6372 30.977 38.6702 31.05C40.8432 35.92 42.7182 41.976 41.8402 45.747C41.4652 47.298 40.4382 49.399 39.2822 51.341C39.1322 51.624 38.9682 51.901 38.7942 52.168C38.7534 52.2285 38.6982 52.278 38.6337 52.312C38.5691 52.3461 38.4971 52.3636 38.4242 52.363H25.0482C24.6882 52.363 24.4782 51.973 24.6682 51.68Z" fill="white"/>
<path d="M82.644 55.461V58.681C82.644 58.867 82.531 59.031 82.367 59.103C81.36 59.535 77.913 61.117 76.48 63.11C72.822 68.2 70.028 75.48 63.781 75.48H37.721C28.485 75.48 21 67.97 21 58.702V58.405C21 58.158 21.2 57.958 21.447 57.958H35.975C36.262 57.958 36.473 58.225 36.447 58.508C36.3447 59.4684 36.5251 60.4377 36.966 61.297C37.3884 62.1514 38.0413 62.8707 38.851 63.3737C39.6607 63.8766 40.5949 64.1431 41.548 64.143H48.74V58.528H41.63C41.5468 58.527 41.4654 58.5033 41.3946 58.4595C41.3238 58.4157 41.2663 58.3534 41.2283 58.2794C41.1902 58.2053 41.1731 58.1223 41.1787 58.0393C41.1843 57.9562 41.2124 57.8763 41.26 57.808C41.338 57.69 41.425 57.568 41.517 57.428C42.4447 56.0927 43.309 54.7145 44.107 53.298C44.759 52.158 45.391 50.94 45.899 49.718C46.002 49.497 46.084 49.271 46.166 49.05C46.305 48.66 46.449 48.295 46.552 47.93C46.654 47.622 46.737 47.298 46.819 46.995C47.06 45.957 47.163 44.858 47.163 43.718C47.163 43.271 47.143 42.803 47.101 42.356C47.081 41.868 47.019 41.38 46.957 40.892C46.9093 40.4543 46.8426 40.0189 46.757 39.587C46.6499 38.9305 46.5131 38.2791 46.347 37.635L46.29 37.389C46.166 36.942 46.064 36.516 45.92 36.069C45.5224 34.7007 45.0664 33.3502 44.553 32.021C44.373 31.512 44.168 31.024 43.963 30.536C43.66 29.801 43.351 29.134 43.069 28.502C42.925 28.214 42.802 27.952 42.679 27.685C42.5418 27.3846 42.3995 27.0865 42.252 26.791C42.149 26.571 42.031 26.365 41.949 26.159L41.07 24.536C41.0425 24.4869 41.03 24.4307 41.0343 24.3746C41.0385 24.3184 41.0592 24.2648 41.0938 24.2204C41.1284 24.176 41.1754 24.1427 41.2288 24.1249C41.2822 24.107 41.3396 24.1053 41.394 24.12L46.891 25.61H46.906C46.916 25.61 46.922 25.615 46.926 25.615L47.651 25.815L48.447 26.041L48.74 26.123V22.856C48.74 21.279 50.004 20 51.565 20C52.346 20 53.055 20.318 53.564 20.837C54.072 21.357 54.391 22.065 54.391 22.857V27.706L54.976 27.87C55.024 27.885 55.0692 27.9076 55.11 27.937C55.254 28.045 55.46 28.204 55.721 28.399C55.927 28.563 56.148 28.764 56.415 28.969C56.944 29.396 57.575 29.945 58.269 30.577C58.454 30.737 58.634 30.901 58.799 31.065C59.7946 31.9813 60.7457 32.9447 61.649 33.952C61.917 34.255 62.179 34.563 62.446 34.887C62.713 35.216 62.996 35.539 63.242 35.863C63.566 36.295 63.915 36.742 64.218 37.209C64.362 37.43 64.526 37.656 64.665 37.877C65.055 38.467 65.399 39.079 65.728 39.69C65.867 39.973 66.011 40.281 66.134 40.584C66.499 41.401 66.786 42.234 66.971 43.065C67.028 43.245 67.069 43.44 67.089 43.615V43.656C67.151 43.903 67.172 44.165 67.192 44.432C67.2772 45.2886 67.2287 46.1533 67.048 46.995C66.9685 47.3587 66.8673 47.7174 66.745 48.069C66.622 48.419 66.499 48.783 66.339 49.127C66.0294 49.8549 65.6602 50.556 65.235 51.223C65.096 51.469 64.932 51.731 64.767 51.978C64.587 52.24 64.403 52.487 64.238 52.728C64.012 53.036 63.771 53.36 63.524 53.648C63.304 53.951 63.077 54.254 62.831 54.521C62.5009 54.9154 62.1618 55.3022 61.814 55.681C61.608 55.923 61.387 56.17 61.161 56.391C60.941 56.637 60.714 56.858 60.509 57.064C60.165 57.408 59.877 57.675 59.636 57.896L59.071 58.415C58.987 58.488 58.8793 58.5282 58.768 58.528H54.39V64.143H59.897C61.1253 64.1424 62.3131 63.703 63.246 62.904C63.57 62.622 64.982 61.399 66.652 59.555C66.7079 59.4927 66.781 59.4481 66.862 59.427L82.073 55.029C82.1397 55.0103 82.2098 55.0074 82.2779 55.0203C82.3459 55.0332 82.41 55.0617 82.4652 55.1035C82.5204 55.1454 82.5652 55.1994 82.596 55.2614C82.6269 55.3234 82.6429 55.3917 82.643 55.461H82.644Z" fill="white"/>
</g>
<defs>
<clipPath id="clip0_466_87735">
<rect width="100" height="100" fill="white"/>
</clipPath>
</defs>
</svg>
