<svg width="100" height="100" viewBox="0 0 100 100" fill="none" xmlns="http://www.w3.org/2000/svg">
<rect width="100" height="100" fill="white"/>
<path d="M61.1497 53.0424L53.7358 60.4836C53.434 60.7872 53.2646 61.1978 53.2646 61.6259C53.2646 62.0539 53.434 62.4646 53.7358 62.7682L59.4012 68.4416C59.8704 68.8999 60.5003 69.1565 61.1561 69.1565C61.812 69.1565 62.4419 68.8999 62.9111 68.4416L80.2759 51.3027C80.5053 51.0763 80.6874 50.8066 80.8117 50.5093C80.936 50.212 81 49.8929 81 49.5706C81 49.2484 80.936 48.9293 80.8117 48.632C80.6874 48.3346 80.5053 48.0649 80.2759 47.8386L62.9127 30.7149C62.4435 30.2566 61.8136 30 61.1577 30C60.5019 30 59.872 30.2566 59.4028 30.7149L53.7374 36.3883C53.4356 36.6919 53.2663 37.1026 53.2663 37.5306C53.2663 37.9587 53.4356 38.3694 53.7374 38.6729L61.1513 46.1141C61.6101 46.5669 61.9743 47.1064 62.2228 47.7011C62.4713 48.2958 62.5992 48.934 62.5991 49.5786C62.5989 50.2232 62.4707 50.8613 62.2219 51.4559C61.9731 52.0505 61.6087 52.5898 61.1497 53.0424Z" fill="#0A6E5C"/>
<path d="M38.8543 53.0424L46.2682 60.4836C46.57 60.7872 46.7394 61.1978 46.7394 61.6259C46.7394 62.0539 46.57 62.4646 46.2682 62.7682L40.6028 68.4416C40.1336 68.8999 39.5038 69.1565 38.8479 69.1565C38.192 69.1565 37.5621 68.8999 37.093 68.4416L19.7241 51.3027C19.4947 51.0763 19.3126 50.8066 19.1883 50.5093C19.064 50.212 19 49.8929 19 49.5706C19 49.2484 19.064 48.9293 19.1883 48.632C19.3126 48.3346 19.4947 48.0649 19.7241 47.8386L37.0922 30.7149C37.5613 30.2566 38.1912 30 38.8471 30C39.503 30 40.1328 30.2566 40.602 30.7149L46.2674 36.3883C46.5692 36.6919 46.7386 37.1026 46.7386 37.5306C46.7386 37.9587 46.5692 38.3694 46.2674 38.6729L38.8543 46.1149C38.3956 46.5676 38.0314 47.1069 37.7828 47.7015C37.5342 48.2961 37.4061 48.9342 37.4061 49.5787C37.4061 50.2231 37.5342 50.8612 37.7828 51.4558C38.0314 52.0504 38.3956 52.5897 38.8543 53.0424Z" fill="#21BF73"/>
<path d="M40.799 50.9942C40.4237 50.6186 40.2129 50.1093 40.2129 49.5783C40.2129 49.0472 40.4237 48.5379 40.799 48.1623L48.5864 40.375C48.962 39.9996 49.4713 39.7888 50.0023 39.7888C50.5333 39.7888 51.0426 39.9996 51.4183 40.375L59.2056 48.1623C59.5809 48.5379 59.7918 49.0472 59.7918 49.5783C59.7918 50.1093 59.5809 50.6186 59.2056 50.9942L51.4175 58.7807C51.0418 59.1561 50.5325 59.3669 50.0015 59.3669C49.4705 59.3669 48.9612 59.1561 48.5856 58.7807L40.799 50.9942Z" fill="#21BF73"/>
</svg>
