<svg width="100" height="100" viewBox="0 0 100 100" fill="none" xmlns="http://www.w3.org/2000/svg">
<g clip-path="url(#clip0_466_87740)">
<rect width="100" height="100" fill="#374151"/>
<path d="M100 50C100 77.6127 77.6127 100 50 100C22.3873 100 0 77.6127 0 50C0 22.3873 22.3873 0 50 0C77.6185 0 100 22.3873 100 50Z" fill="white"/>
<path d="M100 50C100 77.6127 77.6127 100 50 100C22.3873 100 0 77.6127 0 50C0 22.3873 22.3873 0 50 0C77.6185 0 100 22.3873 100 50Z" fill="#374151"/>
<path fill-rule="evenodd" clip-rule="evenodd" d="M37.4564 16.6933H12V24.0664H20.58V46.6094H28.8596V24.1034H36.5856C36.5711 24.152 36.5593 24.1945 36.5487 24.2325C36.5246 24.3191 36.5069 24.3825 36.4798 24.4417C35.214 27.1004 34.8412 29.9296 34.9942 32.8414C35.2474 37.6753 37.1754 41.6334 41.0369 44.5195C44.42 47.0502 48.2565 47.8662 52.3518 47.3573C56.4777 46.8454 59.9219 44.946 62.487 41.5566C64.4123 39.0117 65.3693 36.0772 65.5335 32.8755C65.7699 28.2406 64.6348 24.0636 61.4215 20.6542C58.823 17.8989 55.5791 16.4089 51.8788 16.0791C46.3035 15.5815 41.6156 17.4212 38.0211 21.9054C37.9429 22.0025 37.8639 22.0989 37.7621 22.2229C37.6792 22.3238 37.5812 22.4432 37.4564 22.5963V16.6933ZM55.2633 37.2712C55.4537 37.044 55.6368 36.8012 55.8125 36.5434C57.7322 33.7255 57.5541 29.193 55.4926 26.4746C53.1166 23.344 48.7738 22.9175 45.9054 25.5619C44.1193 27.2083 43.3931 29.3295 43.3264 31.7663C43.3656 32.0163 43.3972 32.269 43.4284 32.522C43.4305 32.5394 43.4326 32.5567 43.4347 32.5741C43.5072 33.1651 43.5797 33.7559 43.7439 34.32C44.5368 37.0412 46.2172 38.9321 49.0077 39.4865C51.5615 39.9923 53.6685 39.176 55.2633 37.2712Z" fill="white"/>
<path d="M76.4085 56.6155C73.0394 56.6155 69.7927 56.6155 66.5098 56.6155C66.5098 53.809 66.5098 51.0622 66.5098 48.2585C76.2889 48.2585 86.0625 48.2585 95.8778 48.2585C95.8778 63.9659 95.8778 79.6476 95.8778 95.3749C93.4824 95.3749 91.1148 95.3749 88.6721 95.3749C88.6721 92.4518 88.6721 89.56 88.6721 86.5829C81.2967 86.5829 73.9992 86.5829 66.6544 86.5829C66.6544 83.7337 66.6544 80.9698 66.6544 78.1463C73.9714 78.1463 81.255 78.1463 88.5942 78.1463C88.5942 70.975 88.5942 63.8635 88.5942 56.6894C87.0084 56.6894 85.3948 56.6894 83.6782 56.6894C83.6782 60.1926 83.6782 63.7242 83.6782 67.2984C81.2132 67.2984 78.8457 67.2984 76.4085 67.2984C76.4085 63.7526 76.4085 60.2409 76.4085 56.6155Z" fill="white"/>
<path d="M66.4653 44.1184C66.4653 43.217 66.4347 42.3753 66.482 41.5365C66.4959 41.2749 66.6767 40.9906 66.8548 40.7773C70.6913 36.1681 74.5362 31.5645 78.3811 26.9609C79.0405 26.1704 79.697 25.3799 80.4593 24.4615C75.7381 24.4615 71.1476 24.4615 66.5126 24.4615C66.5126 21.8199 66.5126 19.2778 66.5126 16.6931C76.3001 16.6931 86.057 16.6931 95.9112 16.6931C95.9112 17.6286 95.9307 18.5641 95.8945 19.4968C95.8862 19.6788 95.6719 19.8636 95.5301 20.0228C91.3096 24.7544 87.0863 29.4831 82.8659 34.2117C82.2149 34.9397 81.5666 35.6733 80.796 36.5434C85.9151 36.5434 90.87 36.5434 95.8723 36.5434C95.8723 39.1139 95.8723 41.5849 95.8723 44.1184C86.1015 44.1184 76.3279 44.1184 66.4653 44.1184Z" fill="white"/>
<path d="M37.8066 48.1875C40.5469 48.1875 43.2317 48.1875 46.0055 48.1875C46.0055 48.5117 46.0055 48.8045 46.0055 49.0946C46.0055 54.6081 46.0027 60.1187 46.011 65.6322C46.011 66.2009 46.0194 66.781 46.1307 67.3354C46.637 69.9002 48.1978 71.1883 50.7963 71.2367C54.1765 71.2992 55.9487 69.6557 56.2047 66.2151C56.2297 65.8938 56.2297 65.5696 56.2297 65.2483C56.2325 59.8855 56.2297 54.5199 56.2297 49.1571C56.2297 48.8614 56.2297 48.5628 56.2297 48.2074C58.9479 48.2074 61.6326 48.2074 64.4231 48.2074C64.4231 48.4462 64.4231 48.705 64.4231 48.9666C64.4231 54.7531 64.373 60.5395 64.4342 66.3232C64.5093 73.429 59.6211 77.9501 53.8705 78.8543C49.8364 79.4884 46.0166 78.951 42.6252 76.4943C39.4091 74.1626 37.8316 70.8727 37.7899 66.8862C37.7259 60.7784 37.7732 54.6706 37.7732 48.56C37.7732 48.4662 37.7899 48.3695 37.8066 48.1875Z" fill="white"/>
<path d="M14.8794 48.2981C21.8124 48.2981 28.7037 48.2981 35.6451 48.2981C35.6451 50.7378 35.6451 53.1547 35.6451 55.6513C31.4441 55.6513 27.2765 55.6513 23.0644 55.6513C23.0644 57.4029 23.0644 59.072 23.0644 60.8122C26.5281 60.8122 29.9668 60.8122 33.45 60.8122C33.45 63.3003 33.45 65.7229 33.45 68.2166C30.003 68.2166 26.5671 68.2166 23.0533 68.2166C23.0533 71.6259 23.0533 74.9642 23.0533 78.3564C20.299 78.3564 17.617 78.3564 14.8822 78.3564C14.8794 68.3702 14.8794 58.3782 14.8794 48.2981Z" fill="white"/>
</g>
<defs>
<clipPath id="clip0_466_87740">
<rect width="100" height="100" fill="white"/>
</clipPath>
</defs>
</svg>
