<svg width="100" height="100" viewBox="0 0 100 100" fill="none" xmlns="http://www.w3.org/2000/svg">
<rect width="100" height="100" fill="white"/>
<path d="M41.3593 27.07C40.6302 26.9568 40.5994 26.9434 40.9426 26.8906C41.6002 26.7893 43.1529 26.9274 44.223 27.1821C46.721 27.7769 48.994 29.3004 51.4204 32.006L52.065 32.7249L52.987 32.5764C56.8719 31.9511 60.8238 32.448 64.1293 33.9774C65.0386 34.3981 66.4724 35.2358 66.6514 35.451C66.7086 35.5195 66.8134 35.9611 66.8843 36.4323C67.1298 38.0623 67.007 39.3118 66.5092 40.2449C66.2383 40.7528 66.2232 40.9136 66.4053 41.3483C66.5507 41.6951 66.956 41.9518 67.3573 41.9513C68.1788 41.9501 69.0629 40.6201 69.4725 38.7696L69.6353 38.0346L69.9577 38.4003C71.7259 40.4068 73.1147 43.1431 73.3532 45.0909L73.4154 45.5986L73.1182 45.137C72.6066 44.3426 72.0927 43.8018 71.4346 43.3656C70.2482 42.5794 68.9938 42.3119 65.6717 42.1365C62.6713 41.9781 60.9732 41.7215 59.2893 41.1715C56.4246 40.236 54.9803 38.9901 51.5772 34.5183C50.0657 32.5321 49.1314 31.4331 48.2021 30.5481C46.0904 28.5373 44.0154 27.4826 41.3593 27.07Z" fill="#FF007A"/>
<path d="M67.3281 31.5044C67.4036 30.1735 67.5838 29.2955 67.9461 28.4939C68.0895 28.1765 68.2239 27.9167 68.2447 27.9167C68.2654 27.9167 68.2031 28.151 68.1061 28.4372C67.8427 29.2154 67.7995 30.2795 67.9808 31.5177C68.2112 33.0887 68.3421 33.3154 70 35.0125C70.7777 35.8085 71.6822 36.8124 72.01 37.2434L72.6062 38.0271L72.01 37.467C71.2809 36.7821 69.6042 35.4464 69.2337 35.2554C68.9855 35.1274 68.9486 35.1295 68.7953 35.2822C68.6541 35.423 68.6244 35.6344 68.6048 36.634C68.5744 38.1919 68.3623 39.1919 67.8506 40.1917C67.5739 40.7325 67.5303 40.6171 67.7808 40.0067C67.9677 39.551 67.9867 39.3506 67.9853 37.8424C67.9824 34.8122 67.6232 34.0837 65.5168 32.8357C64.9831 32.5196 64.1039 32.0636 63.563 31.8225C63.0219 31.5814 62.5922 31.3712 62.6078 31.3556C62.6675 31.2961 64.7218 31.8966 65.5486 32.2151C66.7784 32.689 66.9815 32.7504 67.1309 32.6932C67.231 32.655 67.2794 32.3629 67.3281 31.5044Z" fill="#FF007A"/>
<path d="M42.7756 36.6881C41.2953 34.647 40.3794 31.5174 40.5776 29.1779L40.639 28.4539L40.9759 28.5155C41.6088 28.6311 42.6997 29.0379 43.2106 29.3486C44.6126 30.2014 45.2195 31.3241 45.837 34.2072C46.0179 35.0516 46.2551 36.0072 46.3643 36.3309C46.5402 36.8516 47.2044 38.068 47.7444 38.858C48.1334 39.4269 47.8751 39.6965 47.0152 39.6187C45.702 39.5 43.9231 38.2705 42.7756 36.6881Z" fill="#FF007A"/>
<path d="M65.5326 51.8795C58.6147 49.0898 56.1782 46.6683 56.1782 42.5825C56.1782 41.9813 56.1989 41.4893 56.224 41.4893C56.2492 41.4893 56.5169 41.6878 56.8188 41.9303C58.2217 43.0571 59.7926 43.5385 64.1414 44.1739C66.7004 44.5479 68.1405 44.8499 69.469 45.2911C73.6914 46.6936 76.3038 49.5399 76.9267 53.4166C77.1078 54.5431 77.0016 56.6555 76.708 57.7689C76.4764 58.6483 75.7694 60.2333 75.5818 60.294C75.5297 60.3109 75.4788 60.1114 75.4655 59.8398C75.3943 58.3841 74.6598 56.9669 73.4264 55.9053C72.024 54.6983 70.1397 53.7373 65.5326 51.8795Z" fill="#FF007A"/>
<path d="M60.6763 53.0394C60.5895 52.5229 60.4393 51.8631 60.3422 51.5734L60.1657 51.0466L60.4935 51.4153C60.9472 51.9253 61.3058 52.578 61.6097 53.4473C61.8416 54.1108 61.8676 54.308 61.8659 55.3863C61.8642 56.4448 61.8352 56.6666 61.621 57.2638C61.2833 58.2055 60.8642 58.8733 60.1609 59.59C58.8973 60.8781 57.2726 61.5913 54.9281 61.8871C54.5205 61.9385 53.3327 62.0251 52.2885 62.0795C49.6567 62.2165 47.9247 62.4998 46.3684 63.0471C46.1446 63.1259 45.9448 63.1736 45.9246 63.1534C45.8615 63.0906 46.9212 62.4579 47.7965 62.0356C49.0306 61.4403 50.259 61.1154 53.0116 60.6563C54.3714 60.4294 55.7755 60.1543 56.1321 60.0448C59.4993 59.0108 61.2301 56.3424 60.6763 53.0394Z" fill="#FF007A"/>
<path d="M63.8476 58.679C62.9285 56.7 62.7175 54.7894 63.2209 53.0074C63.2749 52.817 63.3615 52.6611 63.4136 52.6611C63.4657 52.6611 63.6826 52.7786 63.8955 52.9221C64.3191 53.2078 65.1685 53.6886 67.4317 54.9245C70.2558 56.4666 71.8659 57.6608 72.961 59.025C73.9198 60.2199 74.5133 61.5806 74.799 63.24C74.9606 64.18 74.8659 66.4416 74.6251 67.3881C73.8658 70.3725 72.1011 72.7166 69.584 74.0845C69.2152 74.2849 68.8842 74.4495 68.8484 74.4503C68.8126 74.4509 68.9469 74.1088 69.1469 73.6898C69.9937 71.917 70.0901 70.1926 69.45 68.2733C69.0579 67.098 68.2588 65.664 66.6452 63.2404C64.7691 60.4226 64.3091 59.6726 63.8476 58.679Z" fill="#FF007A"/>
<path d="M37.8629 69.3567C40.4302 67.1857 43.6243 65.6435 46.534 65.1701C47.7879 64.966 49.8768 65.047 51.038 65.3446C52.8993 65.8217 54.5642 66.8902 55.4301 68.1633C56.2764 69.4076 56.6395 70.4918 57.0175 72.9043C57.1665 73.856 57.3288 74.8116 57.3778 75.028C57.6616 76.2782 58.2141 77.2776 58.8986 77.7795C59.9859 78.5765 61.8581 78.6261 63.6997 77.9066C64.0123 77.7845 64.2837 77.7 64.3028 77.7191C64.3695 77.7855 63.4422 78.4073 62.7879 78.7346C61.9076 79.175 61.2076 79.3453 60.2774 79.3453C58.5907 79.3453 57.1902 78.4858 56.0217 76.7335C55.7918 76.3886 55.2749 75.3556 54.8731 74.4381C53.6394 71.6196 53.0301 70.761 51.5976 69.8213C50.3509 69.0037 48.7432 68.8573 47.5337 69.4513C45.9449 70.2315 45.5016 72.265 46.6396 73.5537C47.0918 74.0658 47.9352 74.5076 48.6249 74.5935C49.915 74.7542 51.0238 73.7712 51.0238 72.4666C51.0238 71.6195 50.6986 71.1361 49.8803 70.7662C48.7625 70.2611 47.5612 70.8515 47.5669 71.9032C47.5694 72.3516 47.7643 72.6332 48.2131 72.8366C48.5011 72.9671 48.5078 72.9775 48.2729 72.9286C47.2474 72.7156 47.0072 71.4773 47.8317 70.6552C48.8217 69.6683 50.8689 70.1038 51.5719 71.451C51.8672 72.0167 51.9015 73.1436 51.644 73.8241C51.0677 75.3471 49.3874 76.148 47.6828 75.7121C46.5224 75.4153 46.0499 75.0941 44.6507 73.6506C42.2194 71.1422 41.2755 70.6561 37.7703 70.1081L37.0986 70.0031L37.8629 69.3567Z" fill="#FF007A"/>
<path fill-rule="evenodd" clip-rule="evenodd" d="M19.5293 13.1671C27.6488 23.0372 40.1666 38.4044 40.7882 39.2648C41.3012 39.9751 41.1082 40.6138 40.2292 41.1143C39.7403 41.3926 38.7352 41.6746 38.232 41.6746C37.6629 41.6746 37.0218 41.4001 36.5549 40.9565C36.2248 40.643 34.8929 38.651 31.818 33.8725C29.4653 30.2162 27.4964 27.1831 27.4428 27.1324C27.3186 27.0149 27.3207 27.0189 31.5782 34.6485C34.2515 39.4394 35.154 41.1331 35.154 41.3596C35.154 41.8204 35.0285 42.0625 34.461 42.6965C33.515 43.7535 33.0922 44.9411 32.7869 47.3991C32.4446 50.1545 31.4823 52.1009 28.8155 55.432C27.2544 57.382 26.999 57.7394 26.6051 58.5254C26.1088 59.515 25.9724 60.0694 25.9171 61.3191C25.8587 62.6405 25.9726 63.4941 26.3757 64.7575C26.7285 65.8636 27.0968 66.5939 28.0385 68.0548C28.8511 69.3153 29.3191 70.2521 29.3191 70.6185C29.3191 70.9101 29.3746 70.9105 30.6339 70.6258C33.6473 69.9441 36.0944 68.7454 37.4706 67.2764C38.3223 66.3671 38.5222 65.865 38.5287 64.619C38.5329 63.804 38.5043 63.6334 38.2844 63.1645C37.9264 62.4014 37.2745 61.7669 35.8378 60.7833C33.9553 59.4944 33.1513 58.4568 32.9292 57.0298C32.747 55.8589 32.9584 55.0328 33.9998 52.8468C35.0777 50.584 35.3448 49.6198 35.5255 47.339C35.6422 45.8654 35.8038 45.2843 36.2265 44.8179C36.6673 44.3314 37.0642 44.1668 38.1553 44.0174C39.934 43.774 41.0666 43.3131 41.9976 42.4539C42.8053 41.7085 43.1432 40.9903 43.1951 39.909L43.2345 39.0895L42.7832 38.5625C41.1487 36.6538 18.4347 11.6667 18.3341 11.6667C18.3126 11.6667 18.8505 12.342 19.5293 13.1671ZM30.2365 62.8143C30.6061 62.1589 30.4097 61.3161 29.7916 60.9045C29.2075 60.5155 28.3002 60.6988 28.3002 61.2056C28.3002 61.3603 28.3857 61.4729 28.5781 61.5721C28.9021 61.7391 28.9257 61.9269 28.6707 62.3108C28.4125 62.6995 28.4333 63.0413 28.7295 63.2735C29.2069 63.6479 29.8826 63.442 30.2365 62.8143Z" fill="#FF007A"/>
<path fill-rule="evenodd" clip-rule="evenodd" d="M44.3567 44.4468C43.5218 44.7037 42.71 45.5901 42.4587 46.5196C42.3054 47.0866 42.3924 48.0812 42.6221 48.3883C42.993 48.8844 43.3517 49.0152 44.323 49.0083C46.2246 48.9951 47.8777 48.1782 48.0699 47.1569C48.2275 46.3199 47.5014 45.1598 46.5014 44.6506C45.9853 44.3878 44.8878 44.2836 44.3567 44.4468ZM46.5797 46.1878C46.873 45.7706 46.7447 45.3194 46.246 45.0144C45.2963 44.4336 43.8599 44.9142 43.8599 45.8129C43.8599 46.2603 44.6088 46.7483 45.2955 46.7483C45.7524 46.7483 46.3778 46.4754 46.5797 46.1878Z" fill="#FF007A"/>
</svg>
