<svg width="48" height="48" viewBox="0 0 48 48" fill="none" xmlns="http://www.w3.org/2000/svg">
<rect width="48" height="48" rx="24" fill="white"/>
<path d="M24 48C37.2548 48 48 37.2548 48 24C48 10.7452 37.2548 0 24 0C10.7452 0 0 10.7452 0 24C0 37.2548 10.7452 48 24 48Z" fill="#946C2F"/>
<path d="M12.4881 20.1022C11.8373 19.4514 11.8373 18.3963 12.4881 17.7455L17.7455 12.4881C18.3963 11.8373 19.4514 11.8373 20.1022 12.4881C20.753 13.1389 20.753 14.1941 20.1022 14.8449L14.8449 20.1022C14.1941 20.753 13.1389 20.753 12.4881 20.1022Z" fill="white"/>
<path d="M27.8976 35.5119C27.2468 34.8611 27.2468 33.8059 27.8976 33.1551L33.155 27.8978C33.8058 27.247 34.8609 27.247 35.5117 27.8978C36.1625 28.5486 36.1625 29.6037 35.5117 30.2545L30.2544 35.5119C29.6036 36.1627 28.5484 36.1627 27.8976 35.5119Z" fill="white"/>
<path d="M29.4684 26.7883L34.2298 22.0801C39.413 16.7756 31.4814 8.02509 25.1893 14.2378L20.8223 18.7699C22.1155 18.5725 23.1883 18.5972 24.466 19.1523L27.8532 15.8338C30.3395 13.49 34.6276 17.2649 31.7346 20.2255L27.7688 24.2348C26.2177 25.8106 25.1869 25.3095 23.944 24.7053L23.9385 24.7026C23.8599 24.6644 23.7805 24.6258 23.7001 24.5873C22.3445 23.9387 20.8223 26.0431 22.3445 27.1461C24.466 28.6833 27.4345 28.7223 29.4684 26.7883Z" fill="white"/>
<path d="M18.5317 21.2116L13.7704 25.9198C8.58716 31.2244 16.5187 39.9749 22.8109 33.7622L27.1778 29.2301C25.8846 29.4275 24.8118 29.4028 23.5341 28.8477L20.1469 32.1661C17.6606 34.51 13.3726 30.7351 16.2655 27.7744L20.2313 23.7652C21.7824 22.1894 22.8133 22.6905 24.0561 23.2947L24.0606 23.2969C24.1395 23.3352 24.2192 23.374 24.3 23.4126C25.6556 24.0613 27.1778 21.9568 25.6556 20.8539C23.5341 19.3166 20.5656 19.2777 18.5317 21.2116Z" fill="white"/>
</svg>
