<svg width="48" height="48" viewBox="0 0 48 48" fill="none" xmlns="http://www.w3.org/2000/svg">
<path d="M21.0076 1.29691L20.7597 0.864679L21.0076 1.29691C21.918 0.774796 22.9497 0.5 23.9998 0.5C25.05 0.5 26.0817 0.774796 26.9921 1.29691L27.1712 0.984549L26.9921 1.29691L42.279 10.0639L42.279 10.0639C43.1949 10.5891 43.9556 11.346 44.4845 12.2582C45.0135 13.1704 45.292 14.2056 45.292 15.2593V32.7407C45.292 33.7944 45.0136 34.8296 44.4847 35.7418C43.9558 36.654 43.1951 37.4109 42.2793 37.9361L26.9924 46.7031C26.082 47.2252 25.0503 47.5 24.0002 47.5C22.95 47.5 21.9183 47.2252 21.0079 46.7031L5.72099 37.9361C4.80513 37.4109 4.0444 36.654 3.51545 35.7418C2.9865 34.8296 2.708 33.7944 2.70799 32.7407V15.2593C2.70798 14.2056 2.98642 13.1704 3.51532 12.2582C4.04422 11.346 4.80489 10.5891 5.72067 10.0639L21.0076 1.29691Z" fill="white" stroke="#171818"/>
<path d="M22.0685 3.3344L6.97464 12.034C6.40081 12.3646 5.92428 12.8402 5.59307 13.4128C5.26187 13.9855 5.08766 14.6351 5.08789 15.2963L5.09734 32.7146C5.09777 33.3748 5.27211 34.0233 5.60292 34.595C5.93373 35.1668 6.40935 35.6417 6.98211 35.9721L22.0936 44.6892C22.6672 45.0197 23.3179 45.1937 23.9803 45.1937C24.6426 45.1937 25.2934 45.0197 25.867 44.6892L40.961 35.9922C41.5348 35.6616 42.0112 35.1861 42.3424 34.6134C42.6736 34.0407 42.8479 33.3911 42.8476 32.7299L42.8383 15.3116C42.8378 14.6514 42.6633 14.003 42.3325 13.4314C42.0017 12.8597 41.5261 12.3848 40.9534 12.0544L25.842 3.337C25.2684 3.00651 24.6176 2.83252 23.9552 2.83252C23.2929 2.83252 22.6421 3.00651 22.0685 3.337V3.3344Z" fill="#0E0E0E"/>
<path d="M17.0865 38.8024C17.1098 38.6889 17.1607 38.5828 17.2348 38.4937C21.7499 30.8484 26.2659 23.2035 30.7826 15.5589C30.8454 15.4528 30.9036 15.3437 30.9569 15.2486C30.9172 15.1795 30.8721 15.1937 30.8337 15.1937C28.904 15.2006 26.9743 15.2129 25.0433 15.2106C24.9608 15.2092 24.8798 15.2329 24.8113 15.2788C24.7427 15.3246 24.6898 15.3904 24.6598 15.4671C23.2042 17.8692 21.7467 20.2707 20.2874 22.6715C17.196 27.7612 14.1042 32.8507 11.0122 37.9402C10.9848 37.9853 10.9562 38.0295 10.9318 38.0759C10.8771 38.1811 10.815 38.1976 10.7041 38.1334C10.2243 37.8506 9.73928 37.577 9.22954 37.2845L22.9897 15.2622C22.9601 15.1726 22.8992 15.195 22.8524 15.1934C22.1149 15.1713 21.3772 15.1395 20.6404 15.1331C19.6053 15.1024 18.5738 15.2683 17.6008 15.6219C16.7146 15.9494 15.9615 16.5595 15.4584 17.3576C12.9442 21.2707 10.4206 25.1777 7.88736 29.0787C7.84767 29.1403 7.80541 29.2007 7.76442 29.2617C7.61933 29.2617 7.64076 29.1423 7.62742 29.0589C7.61458 28.9332 7.61159 28.8068 7.61837 28.6807C7.61837 24.366 7.63333 20.0512 7.60502 15.7368C7.5823 15.3651 7.67184 14.995 7.86218 14.6747C8.05252 14.3543 8.33489 14.0983 8.67265 13.9398C11.9975 12.0483 15.3009 10.1178 18.6151 8.20715C20.0942 7.3544 21.5779 6.50975 23.0463 5.63915C23.3226 5.45422 23.6476 5.35547 23.9802 5.35547C24.3128 5.35547 24.638 5.45422 24.9142 5.63915C27.6142 7.22033 30.3382 8.76482 33.0522 10.3236C35.0992 11.4998 37.1472 12.6739 39.1962 13.846C39.3429 13.9294 39.4856 14.0186 39.633 14.1008C39.8726 14.2278 40.0707 14.4207 40.204 14.6565C40.3373 14.8924 40.4001 15.1613 40.3851 15.4317C40.389 20.1251 40.389 24.8186 40.3851 29.512C40.3946 29.6275 40.382 29.7437 40.348 29.8545C40.1853 30.0113 40.1265 29.8353 40.0673 29.7519C39.8233 29.4094 39.6044 29.0488 39.3776 28.6943C37.562 25.8583 35.7403 23.0261 33.9126 20.1976C33.2984 19.2416 32.6765 18.2896 32.0688 17.3297C31.927 17.1057 31.9013 17.1025 31.7595 17.343C30.8425 18.8912 29.9262 20.4397 29.0104 21.9885C28.9601 22.0746 28.9385 22.1744 28.9485 22.2735C28.9586 22.3726 28.9998 22.466 29.0663 22.5403C29.8214 23.7561 30.5751 24.9728 31.3274 26.1903L35.1846 32.4163C35.705 33.2577 36.2263 34.0983 36.7485 34.9382C36.8455 35.0508 36.9 35.1936 36.9028 35.342C36.7984 35.5491 36.5807 35.6072 36.3995 35.7014C36.1022 35.9157 35.7753 36.0859 35.4292 36.2068C35.2424 36.1604 35.1764 35.9922 35.0879 35.8546C33.8937 33.9959 32.7149 32.1277 31.5285 30.2645C30.3083 28.3493 29.094 26.4269 27.8686 24.5136C27.7115 24.2682 27.6864 24.2666 27.5387 24.5136C26.4727 26.3032 25.4213 28.1013 24.3527 29.8889C24.2981 29.9727 24.2712 30.0715 24.2759 30.1713C24.2806 30.2712 24.3168 30.367 24.3791 30.4453C25.8185 32.6591 27.2248 34.8924 28.6489 37.1173C29.0461 37.7373 29.4462 38.3551 29.8363 38.9796C29.9124 39.101 30.0165 39.2221 29.9475 39.3864C29.5736 39.6766 29.1702 39.9269 28.7439 40.133C27.4137 40.9053 26.0828 41.6766 24.7512 42.4468C24.5379 42.5842 24.2894 42.6573 24.0355 42.6573C23.7816 42.6573 23.5331 42.5842 23.3199 42.4468C21.3585 41.3146 19.3937 40.1874 17.4252 39.0653C17.2895 39.0115 17.1721 38.9203 17.0865 38.8024V38.8024Z" fill="white"/>
<path d="M40.2895 29.9014C40.2925 29.7855 40.2983 29.67 40.2983 29.5544C40.2983 24.8716 40.2998 20.1889 40.3029 15.5065C40.3195 15.2226 40.2527 14.9399 40.1107 14.6933C39.9686 14.4466 39.7576 14.2467 39.5033 14.1181C34.5756 11.2992 29.6515 8.47392 24.7311 5.64223C24.5095 5.49839 24.2511 5.4215 23.9868 5.42081C23.7224 5.42011 23.4636 5.49565 23.2413 5.63834C20.5087 7.22309 17.7727 8.80374 15.0332 10.3803C12.8353 11.6499 10.6375 12.9199 8.43982 14.1902C8.20509 14.3117 8.01049 14.4983 7.87944 14.7274C7.74839 14.9566 7.68646 15.2187 7.70107 15.4822C7.71234 19.9754 7.71869 24.4687 7.72021 28.962C7.72021 29.062 7.67956 29.1733 7.76706 29.2616C7.24658 30.1263 6.67472 30.9573 6.12659 31.8036C5.85204 32.2273 5.5764 32.6503 5.29968 33.0725C5.25544 33.1401 5.20436 33.2024 5.11686 33.3228C5.11035 33.1813 5.10352 33.103 5.10352 33.0251C5.10352 27.0997 5.1046 21.1742 5.10677 15.2488C5.09228 14.5911 5.2596 13.9422 5.59035 13.3732C5.92111 12.8042 6.40249 12.3371 6.98177 12.0231C8.89258 10.8909 10.8288 9.80084 12.7523 8.68872C14.3752 7.75092 15.9926 6.80597 17.6145 5.86654C19.1272 4.99009 20.6245 4.08735 22.1628 3.25862C22.752 2.93123 23.4185 2.76773 24.0926 2.7852C24.7668 2.80268 25.4238 3.00048 25.9952 3.35795C27.2313 4.05781 28.4623 4.77065 29.6948 5.47766C30.8542 6.14354 32.0135 6.80987 33.1727 7.47662C34.2409 8.09035 35.3095 8.70342 36.3785 9.31585C37.4383 9.92331 38.4982 10.5304 39.5582 11.1373C40.0241 11.4044 40.4895 11.6719 40.9524 11.9439C41.4635 12.2324 41.9029 12.6321 42.238 13.1133C42.5731 13.5944 42.7952 14.1447 42.888 14.7232C42.9099 14.8903 42.9167 15.059 42.9082 15.2273C42.9082 21.058 42.9089 26.8888 42.9104 32.7197C42.9135 33.2737 42.7937 33.8215 42.5596 34.3239C42.3256 34.8263 41.983 35.2708 41.5566 35.6256C41.3132 35.8108 41.0516 35.9708 40.7758 36.1031C39.1927 37.0248 37.6073 37.9427 36.0197 38.8568C34.3327 39.8306 32.6448 40.8028 30.9563 41.7734C29.3339 42.7113 27.7134 43.6527 26.0945 44.5975C25.6914 44.8681 25.2377 45.0548 24.7607 45.1464C23.9682 45.3008 23.147 45.1965 22.4186 44.8491C21.6112 44.417 20.8246 43.9483 20.0286 43.4932C18.9597 42.8812 17.8913 42.268 16.8234 41.6536C16.5218 41.4805 16.2198 41.3083 15.9177 41.1372C15.8068 41.0742 15.7311 41.0102 15.8176 40.8658C16.2171 40.1981 16.6103 39.5264 17.0078 38.8574C17.0218 38.8331 17.0576 38.8217 17.0833 38.8038C17.4537 38.9765 17.8123 39.1733 18.1568 39.393C19.901 40.3885 21.6426 41.3888 23.3814 42.394C23.5823 42.5208 23.8156 42.5869 24.0533 42.5844C24.291 42.5819 24.5229 42.5108 24.721 42.3798C26.3725 41.4128 28.0325 40.4597 29.6889 39.5018C29.7709 39.4544 29.8549 39.4112 29.9382 39.3664C30.0943 39.1673 30.3029 39.0155 30.5406 38.9279C32.037 38.0722 33.5223 37.1996 35.0183 36.3462C35.1433 36.2751 35.2558 36.1654 35.4185 36.1839L36.8843 35.3367C36.9737 35.1497 37.1647 35.0893 37.3247 34.9971C38.0622 34.5722 38.7928 34.1356 39.5368 33.7244C39.7521 33.6113 39.9301 33.4386 40.0494 33.2271C40.1688 33.0155 40.2245 32.7741 40.2098 32.5317C40.2173 31.7871 40.2098 31.0421 40.2134 30.2971C40.1875 30.1603 40.2147 30.0189 40.2895 29.9014Z" fill="#0E0E0E"/>
<path d="M40.2914 29.901C40.2953 30.8255 40.3158 31.7513 40.295 32.6745C40.3007 32.8908 40.2463 33.1045 40.1379 33.2918C40.0294 33.4792 39.8711 33.6329 39.6805 33.736C38.7475 34.2632 37.8315 34.8202 36.89 35.3331C36.5156 34.6514 36.0833 34.0022 35.6741 33.34C33.5488 29.9025 31.4211 26.4671 29.2911 23.0336C29.1636 22.8278 29.0467 22.6142 28.9042 22.4197C28.8579 22.3639 28.8325 22.2937 28.8325 22.2212C28.8325 22.1487 28.8579 22.0785 28.9042 22.0227C29.4127 21.1742 29.9127 20.3208 30.416 19.4687L31.8128 17.1042C31.8376 17.048 31.8811 17.0021 31.9361 16.9744C32.179 17.348 32.424 17.7249 32.6686 18.1021C34.1381 20.3852 35.6073 22.6683 37.0761 24.9514C38.0722 26.5004 39.0682 28.0496 40.064 29.5988C40.1187 29.7138 40.196 29.8166 40.2914 29.901Z" fill="#0E0E0E"/>
<path d="M35.4243 36.1803C34.8176 36.5777 34.1742 36.9156 33.549 37.284C32.4153 37.9492 31.2745 38.602 30.1369 39.2596C30.0718 39.2963 30.0068 39.3307 29.944 39.3661C29.9296 39.2611 29.8843 39.1627 29.8139 39.0833C28.8009 37.4947 27.7878 35.9064 26.7746 34.3184C25.9421 33.0143 25.1071 31.7115 24.2697 30.4101C24.2131 30.3426 24.1802 30.2583 24.1762 30.1703C24.1722 30.0824 24.1973 29.9955 24.2477 29.9231C25.3669 28.0421 26.4815 26.1583 27.5914 24.2717C27.6178 24.2282 27.6389 24.1775 27.7043 24.1636C27.7954 24.184 27.8175 24.2749 27.8608 24.3428C29.8776 27.5129 31.8945 30.6833 33.9114 33.8539C34.3404 34.5287 34.7675 35.2052 35.1992 35.8788C35.2542 35.9928 35.3303 36.0954 35.4236 36.181L35.4243 36.1803Z" fill="#0E0E0E"/>
</svg>
