<svg width="48" height="48" viewBox="0 0 48 48" fill="none" xmlns="http://www.w3.org/2000/svg">
<circle cx="24" cy="24" r="24" fill="#E84142"/>
<path fill-rule="evenodd" clip-rule="evenodd" d="M12.58 32.5855H17.2378C18.3344 32.5855 18.8827 32.5855 19.3721 32.45C19.9086 32.2906 20.398 32.0078 20.8048 31.6185C21.1784 31.2626 21.448 30.7908 21.9798 29.86L21.9801 29.8595L21.9957 29.8322L28.0367 19.1535C28.5732 18.2161 28.8385 17.7444 28.9564 17.2491C29.0861 16.7126 29.0861 16.1466 28.9564 15.6101C28.8394 15.1186 28.5714 14.6503 28.0428 13.7268L28.0308 13.7057L25.6665 9.57862C25.1772 8.71781 24.9296 8.28741 24.6171 8.12823C24.281 7.95726 23.8801 7.95726 23.544 8.12823C23.2315 8.28741 22.9839 8.71781 22.4946 9.57862L10.9941 29.8498C10.5106 30.6988 10.2688 31.1235 10.2866 31.4712C10.3101 31.8486 10.5047 32.1905 10.8231 32.397C11.1179 32.5855 11.6013 32.5855 12.58 32.5855ZM35.674 32.5855H29.0001C28.0155 32.5855 27.5202 32.5855 27.2313 32.397C26.9129 32.1905 26.7184 31.8429 26.6948 31.4654C26.6772 31.1203 26.9209 30.6997 27.4084 29.8581L27.4086 29.8579L27.42 29.8382L30.7511 24.1192C31.2405 23.2761 31.4881 22.8575 31.7947 22.6983C32.1306 22.5273 32.5259 22.5273 32.8618 22.6983C33.1662 22.8533 33.4032 23.2541 33.8725 24.0477L33.8732 24.0489L33.9113 24.1133L37.2543 29.8323C37.2624 29.8463 37.2704 29.8601 37.2784 29.8739C37.2865 29.8878 37.2945 29.9017 37.3026 29.9154L37.3026 29.9155C37.766 30.7151 38.0025 31.1232 37.9855 31.4597C37.9676 31.8368 37.7673 32.1848 37.449 32.3912C37.154 32.5855 36.6587 32.5855 35.6741 32.5855H35.674Z" fill="white"/>
</svg>
