<svg width="48" height="48" viewBox="0 0 48 48" fill="none" xmlns="http://www.w3.org/2000/svg">
<g clip-path="url(#clip0_462_58992)">
<path fill-rule="evenodd" clip-rule="evenodd" d="M24 0C37.2558 0 48 10.7442 48 24C48 37.2558 37.2558 48 24 48C10.7442 48 0 37.2558 0 24C0 10.7442 10.7442 0 24 0Z" fill="white"/>
<path d="M13.1902 24L13.2075 30.3462L18.5998 33.5192V37.2346L10.0517 32.2212V22.1442L13.1902 24ZM13.1902 17.6539V21.3519L10.0498 19.4942V15.7962L13.1902 13.9385L16.346 15.7962L13.1902 17.6539ZM20.8517 15.7962L23.9921 13.9385L27.1479 15.7962L23.9921 17.6539L20.8517 15.7962Z" fill="#0E0E0E"/>
<path d="M15.4595 29.0308V25.3154L18.5999 27.1731V30.8712L15.4595 29.0308ZM20.8518 34.85L23.9922 36.7077L27.1479 34.85V38.5481L23.9922 40.4058L20.8518 38.5481V34.85ZM31.6518 15.7962L34.7922 13.9385L37.9479 15.7962V19.4942L34.7922 21.3519V17.6539L31.6518 15.7962ZM34.7922 30.3462L34.8095 24L37.9499 22.1423V32.2192L29.4018 37.2327V33.5173L34.7922 30.3462Z" fill="#0E0E0E"/>
<path d="M32.5403 29.0308L29.3999 30.8712V27.1731L32.5403 25.3154V29.0308Z" fill="#0E0E0E"/>
<path d="M32.5402 18.9692L32.5575 22.6846L27.1499 25.8577V32.2192L24.0095 34.0596L20.8691 32.2192V25.8577L15.4614 22.6846V18.9692L18.6152 17.1115L23.9902 20.3L29.3979 17.1115L32.5537 18.9692H32.5402ZM15.4595 12.625L23.9922 7.59424L32.5402 12.625L29.3999 14.4827L23.9922 11.2942L18.5999 14.4827L15.4595 12.625Z" fill="#0E0E0E"/>
</g>
<defs>
<clipPath id="clip0_462_58992">
<rect width="48" height="48" rx="24" fill="white"/>
</clipPath>
</defs>
</svg>
