<svg width="48" height="48" viewBox="0 0 48 48" fill="none" xmlns="http://www.w3.org/2000/svg">
<g clip-path="url(#clip0_462_59027)">
<path d="M24 48C37.2548 48 48 37.2548 48 24C48 10.7452 37.2548 0 24 0C10.7452 0 0 10.7452 0 24C0 37.2548 10.7452 48 24 48Z" fill="white"/>
<path fill-rule="evenodd" clip-rule="evenodd" d="M23.4594 19.3701C23.4841 19.3589 23.505 19.3407 23.5196 19.3178C23.5342 19.295 23.542 19.2684 23.5419 19.2412V7.34227C23.5419 7.19723 23.3508 7.14486 23.2784 7.27176L14.0259 23.3666C14.0105 23.3926 14.0039 23.4228 14.007 23.4528C14.01 23.4827 14.0226 23.511 14.0429 23.5333C14.0631 23.5556 14.09 23.5708 14.1195 23.5767C14.149 23.5826 14.1796 23.5789 14.2069 23.5661L23.4594 19.3701ZM23.5419 31.1663C23.5423 31.1919 23.5358 31.2171 23.5231 31.2392C23.5103 31.2614 23.4918 31.2796 23.4695 31.292C23.4471 31.3044 23.4219 31.3105 23.3964 31.3097C23.3709 31.3088 23.3461 31.3011 23.3246 31.2872L14.0279 25.4596C14.0057 25.4464 13.9876 25.4274 13.9755 25.4046C13.9634 25.3818 13.9578 25.3562 13.9592 25.3304C13.9607 25.3046 13.9691 25.2798 13.9837 25.2585C13.9983 25.2372 14.0185 25.2204 14.0419 25.2098L23.3407 20.8527C23.3623 20.8424 23.3861 20.8379 23.41 20.8394C23.4338 20.8409 23.4569 20.8484 23.477 20.8613C23.4971 20.8742 23.5136 20.892 23.5249 20.9131C23.5363 20.9341 23.5421 20.9577 23.5419 20.9816V31.1663ZM23.4614 41.3349C23.4614 41.4759 23.2804 41.5303 23.1999 41.4155L13.6256 27.194C13.5391 27.063 13.6899 26.9099 13.8207 26.9925L23.395 33.1807C23.4152 33.1933 23.4319 33.2108 23.4435 33.2316C23.4551 33.2523 23.4613 33.2757 23.4614 33.2995V41.3349ZM24.2539 19.3701C24.2292 19.3589 24.2083 19.3407 24.1937 19.3178C24.179 19.295 24.1713 19.2684 24.1714 19.2412V7.34227C24.1714 7.19723 24.3625 7.14486 24.4369 7.27176L33.6874 23.3666C33.7028 23.3926 33.7094 23.4228 33.7063 23.4528C33.7033 23.4827 33.6907 23.511 33.6704 23.5333C33.6502 23.5556 33.6233 23.5708 33.5938 23.5767C33.5643 23.5826 33.5337 23.5789 33.5064 23.5661L24.2539 19.3701ZM24.1714 31.1663C24.1714 31.2771 24.2921 31.3456 24.3887 31.2872L33.6854 25.4596C33.7076 25.4464 33.7257 25.4274 33.7378 25.4046C33.7499 25.3818 33.7555 25.3562 33.7541 25.3304C33.7526 25.3046 33.7441 25.2798 33.7296 25.2585C33.715 25.2372 33.6948 25.2204 33.6713 25.2098L24.3726 20.8527C24.351 20.8424 24.3272 20.8379 24.3033 20.8394C24.2795 20.8409 24.2564 20.8484 24.2363 20.8613C24.2162 20.8742 24.1997 20.892 24.1883 20.9131C24.177 20.9341 24.1712 20.9577 24.1714 20.9816V31.1663ZM24.1714 41.3429C24.1714 41.4839 24.3525 41.5383 24.4309 41.4235L34.146 27.194C34.2325 27.065 34.0817 26.9099 33.9509 26.9925L24.2358 33.1827C24.2157 33.1957 24.1992 33.2136 24.188 33.2348C24.1767 33.2559 24.171 33.2796 24.1714 33.3036V41.3429Z" fill="#0E0E0E"/>
</g>
<defs>
<clipPath id="clip0_462_59027">
<rect width="48" height="48" rx="24" fill="white"/>
</clipPath>
</defs>
</svg>
