<svg width="48" height="48" viewBox="0 0 48 48" fill="none" xmlns="http://www.w3.org/2000/svg">
<circle cx="24" cy="24" r="24" fill="url(#paint0_linear_462_59147)"/>
<path d="M31.9602 10C30.3609 9.99876 28.8264 10.6339 27.6937 11.7659C26.5609 12.898 25.9224 14.4345 25.9183 16.0381V22.7329C25.2961 22.775 24.6598 22.8015 24.0002 22.8015C23.3407 22.8015 22.7076 22.828 22.0822 22.8655V16.0381C22.0568 14.4484 21.4091 12.9324 20.279 11.8172C19.1488 10.702 17.6267 10.0769 16.0411 10.0769C14.4555 10.0769 12.9334 10.702 11.8033 11.8172C10.6731 12.9324 10.0254 14.4484 10 16.0381V32.0388C10.0254 33.6286 10.6731 35.1446 11.8033 36.2598C12.9334 37.375 14.4555 38 16.0411 38C17.6267 38 19.1488 37.375 20.279 36.2598C21.4091 35.1446 22.0568 33.6286 22.0822 32.0388V25.344C22.7044 25.3019 23.3407 25.2754 24.0002 25.2754C24.6598 25.2754 25.2929 25.2489 25.9183 25.2115V32.0388C25.9437 33.6286 26.5914 35.1446 27.7215 36.2598C28.8517 37.375 30.3738 38 31.9594 38C33.545 38 35.0671 37.375 36.1972 36.2598C37.3274 35.1446 37.9751 33.6286 38.0005 32.0388V16.0381C37.9964 14.4347 37.3581 12.8985 36.2256 11.7665C35.0932 10.6345 33.5592 9.99917 31.9602 10ZM16.0403 12.4739C16.9842 12.4735 17.8896 12.8485 18.5581 13.5167C19.2265 14.1849 19.6033 15.0917 19.6057 16.0381V23.1275C17.8382 23.3843 16.1122 23.8737 14.4723 24.5828C13.7618 24.8955 13.0929 25.2959 12.4812 25.7746V16.0381C12.4836 15.0928 12.8595 14.1869 13.5266 13.5189C14.1937 12.8509 15.0976 12.4751 16.0403 12.4739ZM19.6057 32.0388C19.6057 32.987 19.2301 33.8964 18.5614 34.5668C17.8928 35.2373 16.9859 35.614 16.0403 35.614C15.0947 35.614 14.1879 35.2373 13.5192 34.5668C12.8506 33.8964 12.4749 32.987 12.4749 32.0388V30.4338C12.4749 29.0159 13.595 27.6729 15.4725 26.8368C16.7955 26.2645 18.1837 25.8574 19.6057 25.6248V32.0388ZM31.9602 35.603C31.0163 35.6035 30.1109 35.2284 29.4424 34.5602C28.774 33.892 28.3972 32.9852 28.3948 32.0388V24.9494C30.1623 24.6926 31.8883 24.2033 33.5282 23.4941C34.2387 23.1814 34.9076 22.7811 35.5193 22.3024V32.0388C35.5169 32.9842 35.141 33.89 34.4739 34.558C33.8068 35.226 32.9029 35.6018 31.9602 35.603ZM32.528 21.2308C31.205 21.8031 29.8168 22.2102 28.3948 22.4428V16.0381C28.3948 15.0899 28.7704 14.1806 29.4391 13.5101C30.1077 12.8396 31.0146 12.463 31.9602 12.463C32.9058 12.463 33.8126 12.8396 34.4813 13.5101C35.1499 14.1806 35.5256 15.0899 35.5256 16.0381V17.6432C35.5256 19.0548 34.4055 20.3978 32.528 21.2308Z" fill="white"/>
<defs>
<linearGradient id="paint0_linear_462_59147" x1="3.04" y1="44.4239" x2="44.8007" y2="2.66385" gradientUnits="userSpaceOnUse">
<stop stop-color="#00AEE9"/>
<stop offset="1" stop-color="#69FABD"/>
</linearGradient>
</defs>
</svg>
