<svg width="48" height="48" viewBox="0 0 48 48" fill="none" xmlns="http://www.w3.org/2000/svg">
<circle cx="24" cy="24" r="24" fill="#FE0420"/>
<path fill-rule="evenodd" clip-rule="evenodd" d="M12.3703 25.1483C12.3703 25.1483 12.6103 24.0083 13.1503 21.6683C13.5703 19.7483 15.6703 17.2883 19.2703 17.2883C22.8703 17.2883 24.6703 19.6883 23.9503 22.7483L23.1703 26.0483C22.5703 28.6283 20.2303 30.3083 17.1103 30.3083C13.9903 30.3083 11.6503 28.6283 12.3703 25.1483ZM15.6704 25.2082L16.3304 22.3282C16.7504 20.5882 17.7704 19.9282 19.0904 19.9282C20.4104 19.9282 20.931 20.8251 20.6504 22.5082L20.0504 25.2682C19.6904 26.9482 18.7304 27.7282 17.2304 27.7282C15.7304 27.7282 15.4304 26.3482 15.6704 25.2082ZM24.67 29.4081L27.07 18.1881C27.13 17.8881 27.37 17.5881 27.73 17.5881H29.95H30.43H32.59C35.47 17.5881 36.79 18.7281 36.79 21.1281C36.79 23.5281 34.81 25.6281 31.99 25.6281H28.7735L27.97 29.5281C27.876 29.9585 27.67 30.0681 27.25 30.0681H25.09C24.73 30.0681 24.585 29.8184 24.67 29.4081ZM29.268 23.2281L29.9355 19.9881H31.8819C33.0257 19.9881 33.43 20.4081 33.43 21.3681C33.43 22.3281 32.57 23.2281 31.45 23.2281H29.268Z" fill="white"/>
</svg>
