<svg width="48" height="48" viewBox="0 0 48 48" fill="none" xmlns="http://www.w3.org/2000/svg">
<g clip-path="url(#clip0_462_59192)">
<circle cx="24" cy="24" r="24" fill="white"/>
<path d="M13.1573 39C10.8613 39 9 37.1388 9 34.8428C9 33.1838 9.98637 31.6836 11.5095 31.026L21.1102 26.8812C21.3999 26.7562 21.4926 26.3907 21.2976 26.1427C21.1598 25.9675 20.9197 25.91 20.7175 26.0038L13.4648 29.3671C11.3819 30.333 9 28.812 9 26.5161C9 24.7212 10.5007 23.2909 12.2935 23.377L22.4773 23.8664C22.5747 23.8711 22.6563 23.7934 22.6563 23.6958C22.6563 23.6059 22.5865 23.5314 22.4969 23.5255L11.1451 22.7681C9.93796 22.6876 9 21.685 9 20.4752C9 18.6102 11.1045 17.5219 12.6264 18.5999L16.3531 21.2397C16.8486 21.5907 17.5347 21.4738 17.8861 20.9787C18.2752 20.4304 18.0858 19.6644 17.486 19.3606L11.0584 16.1051C9.79579 15.4656 9 14.1705 9 12.7551L9 11.7618C9 10.2365 10.2365 9 11.7618 9C12.6387 9 13.4635 9.41643 13.9842 10.122L22.4829 21.64C22.5768 21.7673 22.7587 21.789 22.8799 21.6872C22.9887 21.5958 23.0097 21.4365 22.9283 21.32L18.1692 14.5148C16.5442 12.1912 18.2066 9 21.0421 9C23.2108 9 24.8592 10.9493 24.4991 13.0879L23.6629 18.0534C23.6431 18.1711 23.7338 18.2783 23.8531 18.2783C23.9399 18.2783 24.016 18.2204 24.0391 18.1368L25.6724 12.2231C26.1983 10.3189 27.9307 9 29.9063 9L35.2908 9C37.3393 9 39 10.6607 39 12.7092C39 13.8583 38.4674 14.9426 37.5579 15.6449L26.4655 24.2111C26.3435 24.3053 26.3089 24.4746 26.3841 24.609C26.4777 24.7762 26.6986 24.8198 26.8487 24.7008L34.219 18.8547C36.1516 17.3218 39 18.6981 39 21.1648C39 22.6972 37.8263 23.9741 36.2994 24.103L29.6295 24.666C29.4856 24.6782 29.375 24.7985 29.375 24.9429C29.375 25.1026 29.5093 25.2295 29.6687 25.2203L34.1875 24.9623C36.7998 24.8132 39 26.8913 39 29.5078V36.4109C39 37.8408 37.8408 39 36.4109 39C35.3988 39 34.4795 38.4103 34.0576 37.4903L31.8569 32.6925C31.5332 31.9867 30.717 31.6537 29.992 31.9315C29.013 32.3067 28.7287 33.5557 29.4489 34.3176L30.2629 35.1788C31.6282 36.6231 30.6042 39 28.6168 39H27.5794C26.2126 39 25.0594 37.9829 24.8886 36.6268L23.6405 26.7164C23.631 26.6418 23.5786 26.5798 23.5066 26.5582C23.375 26.5187 23.2462 26.6277 23.2635 26.764L24.1392 33.6817C24.4965 36.5042 22.2967 39 19.4518 39H13.1573Z" fill="#0E0E0E"/>
</g>
<defs>
<clipPath id="clip0_462_59192">
<rect width="48" height="48" rx="24" fill="white"/>
</clipPath>
</defs>
</svg>
