<svg width="48" height="48" viewBox="0 0 48 48" fill="none" xmlns="http://www.w3.org/2000/svg">
<g clip-path="url(#clip0_462_58942)">
<rect width="48" height="48" rx="24" fill="#8247E5"/>
<path d="M32.4032 17.7663C32.0869 17.5872 31.7305 17.4931 31.3681 17.4931C31.0057 17.4931 30.6494 17.5872 30.3331 17.7663L25.5837 20.5571L22.3567 22.3771L17.6076 25.1679C17.2912 25.3469 16.9349 25.4408 16.5725 25.4408C16.2102 25.4408 15.8539 25.3469 15.5375 25.1679L11.7623 22.9838C11.4551 22.8054 11.1986 22.5497 11.0174 22.2415C10.8362 21.9333 10.7365 21.583 10.7279 21.2244V16.9169C10.7237 16.5556 10.818 16.2001 11.0005 15.8896C11.1831 15.5792 11.4467 15.3258 11.7623 15.1575L15.4765 13.0341C15.7929 12.8551 16.1492 12.7612 16.5116 12.7612C16.8739 12.7612 17.2302 12.8551 17.5466 13.0341L21.2608 15.1575C21.568 15.336 21.8245 15.5916 22.0057 15.8998C22.1869 16.208 22.2866 16.5583 22.2952 16.9169V19.7077L25.5222 17.827V15.0362C25.5264 14.6749 25.4321 14.3194 25.2496 14.0089C25.067 13.6984 24.8034 13.4451 24.4878 13.2768L17.6076 9.27291C17.2912 9.09395 16.9349 9 16.5725 9C16.2102 9 15.8539 9.09395 15.5375 9.27291L8.53451 13.2771C8.21892 13.4453 7.95534 13.6987 7.77282 14.0091C7.5903 14.3195 7.49594 14.6749 7.50014 15.0362V23.1051C7.49589 23.4665 7.59022 23.822 7.77275 24.1324C7.95527 24.4429 8.21888 24.6962 8.53451 24.8645L15.5367 28.8687C15.853 29.0477 16.2094 29.1416 16.5717 29.1416C16.9341 29.1416 17.2904 29.0477 17.6068 28.8687L22.3559 26.1386L25.5829 24.2579L30.3323 21.5278C30.6486 21.3486 31.0049 21.2546 31.3673 21.2546C31.7297 21.2546 32.086 21.3486 32.4024 21.5278L36.1166 23.6512C36.4237 23.8296 36.6803 24.0853 36.8614 24.3935C37.0426 24.7017 37.1423 25.052 37.1509 25.4106V29.7181C37.1552 30.0794 37.0609 30.4349 36.8783 30.7453C36.6958 31.0558 36.4322 31.3092 36.1166 31.4775L32.4024 33.6615C32.086 33.8405 31.7297 33.9345 31.3673 33.9345C31.005 33.9345 30.6486 33.8405 30.3323 33.6615L26.618 31.5381C26.3109 31.3597 26.0544 31.104 25.8732 30.7958C25.692 30.4876 25.5923 30.1373 25.5837 29.7787V26.9877L22.3567 28.8684V31.6592C22.3525 32.0205 22.4468 32.376 22.6293 32.6865C22.8118 32.9969 23.0755 33.2503 23.3911 33.4186L30.3932 37.4227C30.7096 37.6017 31.0659 37.6957 31.4283 37.6957C31.7906 37.6957 32.147 37.6017 32.4633 37.4227L39.4655 33.4186C39.7726 33.2401 40.0292 32.9845 40.2104 32.6763C40.3915 32.3681 40.4913 32.0178 40.4999 31.6592V23.5905C40.5041 23.2292 40.4098 22.8737 40.2273 22.5632C40.0447 22.2528 39.7811 21.9994 39.4655 21.8311L32.4032 17.7663Z" fill="white"/>
</g>
<defs>
<clipPath id="clip0_462_58942">
<rect width="48" height="48" fill="white"/>
</clipPath>
</defs>
</svg>
